<?xml version="1.0" standalone="no"?><!-- Generator: Adobe Fireworks CS6, Export SVG Extension by Aaron Beall (http://fireworks.abeall.com) . Version: 0.6.1  --><!DOCTYPE svg PUBLIC "-//W3C//DTD SVG 1.1//EN" "http://www.w3.org/Graphics/SVG/1.1/DTD/svg11.dtd"><svg id="Untitled-Page%201" viewBox="0 0 628 991" style="background-color:#ffffff00" version="1.1"	xmlns="http://www.w3.org/2000/svg" xmlns:xlink="http://www.w3.org/1999/xlink" xml:space="preserve"	x="0px" y="0px" width="628px" height="991px">	<g id="Layer%204">		<g>			<path d="M 314 0 C 313.9416 0 313.8831 0 313.8247 0 C 298.7739 0 278.2865 1.2109 256.9655 7.9983 C 225.4302 18.0362 199.9842 27.3569 160.1987 57.4758 C 138.3628 74.0092 106.4398 113.4062 96.7668 171.4876 C 112.8956 132.765 121.1351 125.42 127.9465 123.6193 C 126.5079 156.6113 98.917 174.7168 94.6168 210.5609 C 106.9761 198.3773 118.4488 204.076 98.917 229.0327 C 71.5014 254.3078 21.5014 323.1439 33.3298 396.2874 C 33.3298 345.7316 56.9866 322.0658 70.2485 318.125 C 44.0805 362.9447 44.0805 399.5163 51.6087 412.4224 C 53.7587 385.5323 64.5095 376.9233 73.1154 374.0607 C 54.1623 395.7457 59.9013 417.7969 64.1962 430.708 C 37.6779 427.1232 6.8593 465.8405 0 527.5067 C 10.7508 510.299 25.8016 500.6224 34.4075 503.1346 C 8.6006 538.2668 3.5835 579.8524 10.7508 611.4103 C 13.9785 578.0679 19.3512 569.4638 26.8794 567.3075 C 34.4075 581.2968 33.3298 600.6503 25.8016 620.7313 C 19.914 636.4465 -1.0777 696.3814 8.6006 742.6299 C 11.8284 710.3654 18.2788 691.0012 27.2351 685.2654 C 18.2788 726.5003 21.5067 777.0452 28.6738 798.5551 C 30.1073 773.827 35.8357 765.2229 41.9303 760.9209 C 47.6641 836.2154 76.3379 887.8385 117.1959 921.1812 C 108.59 901.1055 105.3674 885.6875 109.6678 877.0837 C 128.6632 882.8302 131.1745 930.8632 153.3979 953.4404 C 149.4479 925.4833 156.9761 910.4318 164.86 914.7229 C 175.5469 920.5439 182.783 948.7878 187.0834 963.1277 C 184.981 943.7689 198.3012 938.0171 208.5848 940.5453 C 230.5002 945.9199 248.057 963.4889 255.2242 981.0577 C 256.838 973.8877 258.0911 968.5128 255.2242 964.2058 C 277.2672 964.2058 305.6595 981.2806 313.8247 991 C 313.8831 990.9363 313.9362 990.8669 314 990.7926 C 314.0638 990.8669 314.122 990.9363 314.1805 991 C 322.3405 981.2806 350.7382 964.2058 372.7758 964.2058 C 369.9089 968.5128 371.1671 973.8877 372.7758 981.0577 C 379.9429 963.4889 397.5049 945.9199 419.4152 940.5453 C 429.6987 938.0171 443.0243 943.7689 440.9166 963.1277 C 445.2168 948.7878 452.4529 920.5439 463.14 914.7229 C 471.0239 910.4318 478.5519 925.4833 474.6074 953.4404 C 496.8255 930.8632 499.3366 882.8302 518.3269 877.0837 C 522.6324 885.6875 519.41 901.1055 510.8041 921.1812 C 551.662 887.8385 580.3359 836.2154 586.0695 760.9209 C 592.1643 765.2229 597.8927 773.827 599.3314 798.5551 C 606.4986 777.0452 609.7211 726.5003 600.7649 685.2654 C 609.7211 691.0012 616.1714 710.3654 619.3994 742.6299 C 629.0776 696.3814 608.0859 636.4465 602.1982 620.7313 C 594.6701 600.6503 593.5977 581.2968 601.1258 567.3075 C 608.6486 569.4638 614.0213 578.0679 617.2439 611.4103 C 624.4163 579.8524 619.3994 538.2668 593.5977 503.1346 C 602.1982 500.6224 617.2439 510.299 628 527.5067 C 621.1407 465.8405 590.3274 427.1232 563.7983 430.708 C 568.104 417.7969 573.8377 395.7457 554.8846 374.0607 C 563.4905 376.9233 574.2411 385.5323 576.3913 412.4224 C 583.9194 399.5163 583.9194 362.9447 557.7568 318.125 C 571.0134 322.0658 594.6701 345.7316 594.6701 396.2874 C 606.4986 323.1439 556.5039 254.3078 529.0828 229.0327 C 509.5511 204.076 521.0186 198.3773 533.3779 210.5609 C 529.0828 174.7168 501.4868 156.6113 500.0533 123.6193 C 506.8701 125.42 515.1042 132.765 531.233 171.4876 C 521.5547 113.4062 489.6372 74.0092 467.8013 57.4758 C 428.0158 27.3569 402.5698 18.0362 371.0292 7.9983 C 349.7135 1.2109 329.2261 0 314.1805 0 C 314.122 0 314.0584 0 314 0 Z" fill="#822a3a"/>			<path d="M 307.9052 758.733 C 271.3528 751.2974 225.1116 760.8253 211.1384 778.9202 C 197.6642 796.3669 208.0804 890.8076 262.3329 893.6648 C 245.0522 899.8734 227.7715 890.5684 219.9194 885.9054 C 227.7715 902.9749 260.9473 928.6166 314.8865 927.6393 C 362.5346 926.7684 397.6962 902.9749 405.5587 885.9054 C 397.6962 890.5684 380.4207 899.8734 363.1505 893.6648 C 417.3872 890.8076 433.2875 806.479 417.5783 790.9548 C 390.6989 784.2311 362.4073 769.8169 307.9052 758.733 Z" fill="#e5b96f"/>			<path d="M 316.5111 751.239 C 273.8588 740.8402 219.0274 746.2147 192.6684 774.8995 C 188.5964 767.0233 187.6515 722.5489 217.7586 701.0391 C 190.5235 691.0012 184.7899 648.6991 201.9856 632.9202 C 201.269 673.0765 232.8096 684.5485 245.7104 684.5485 C 223.4923 668.7748 213.2248 653.033 214.1751 636.5049 C 215.2475 609.6205 238.4054 589.1783 259.9068 587.7445 C 273.8481 586.8096 305.6967 595.1904 313.9309 622.181 C 322.1704 595.1904 354.019 586.8096 367.9551 587.7445 C 389.4618 589.1783 412.6197 609.6205 413.6921 636.5049 C 414.637 653.033 404.3749 668.7748 382.1515 684.5485 C 395.0522 684.5485 426.5982 673.0765 425.8762 632.9202 C 443.0773 648.6991 437.3437 691.0012 410.1086 701.0391 C 440.2104 722.5489 437.6462 758.7649 430.4791 771.676 C 411.1279 775.9724 376.0566 765.754 316.5111 751.239 Z" fill="#e5b96f"/>			<g>				<path d="M 321.098 639.3782 C 334.721 637.2219 355.5057 620.7313 366.9783 610.6934 C 378.4457 600.6503 384.9014 618.219 394.9354 629.691 C 377.7291 623.2432 364.2496 639.5643 358.3724 643.6802 C 347.6218 651.2057 332.5708 649.0547 321.098 639.3782 L 321.098 639.3782 Z" fill="#822a3a"/>				<path d="M 306.7692 639.3782 C 293.1462 637.2219 272.3617 620.7313 260.8889 610.6934 C 249.4214 600.6503 242.9657 618.219 232.9318 629.691 C 250.1381 623.2432 263.6176 639.5643 269.4895 643.6802 C 280.2454 651.2057 295.2964 649.0547 306.7692 639.3782 Z" fill="#822a3a"/>			</g>			<path d="M 312.9701 525.3929 C 306.0948 525.4888 297.7439 528.1016 294.739 530.4705 C 300.3824 531.2776 304.4173 533.4286 307.369 536.1161 C 301.1893 543.3763 282.9106 543.3763 262.4816 535.8504 C 271.082 546.6051 279.688 547.678 286.8552 557.0043 C 274.5807 550.4557 250.9239 546.5096 229.8792 558.5499 C 204.4597 571.2964 173.4392 578.9759 146.4644 566.2347 C 164.0318 567.3075 198.349 558.7038 209.0998 543.647 C 151.0406 557.6309 116.6385 533.9651 132.8521 508.1536 C 123.1737 522.1322 116.0119 528.2292 102.7448 523.2103 C 110.2729 516.7573 119.2239 503.1293 119.2239 485.9162 C 110.6234 501.6952 80.1658 505.9973 90.9164 535.038 C 100.5947 557.6309 123.0517 585.0623 155.8452 594.2025 C 153.159 600.2996 140.7942 603.8847 130.0436 603.8847 C 140.6085 612.0529 154.9428 618.5006 173.986 616.7109 C 170.0044 623.9658 172.3933 641.5239 176.8688 651.1898 C 181.5354 625.9307 197.5314 604.5538 219.8185 592.0571 C 249.2091 575.5609 279.3747 579.1407 302.3734 594.9144 C 302.3734 589.5396 291.6226 578.4235 283.3777 575.3804 C 288.4424 573.6491 302.4901 578.9016 312.9701 593.8098 C 323.4446 578.9016 337.4922 573.6491 342.5571 575.3804 C 334.3174 578.4235 323.5615 589.5396 323.5615 594.9144 C 346.56 579.1407 376.7257 575.5609 406.1161 592.0571 C 428.4033 604.5538 444.4045 625.9307 449.0711 651.1898 C 453.5413 641.5239 455.9357 623.9658 451.9539 616.7109 C 470.9973 618.5006 485.3315 612.0529 495.8965 603.8847 C 485.1458 603.8847 472.7811 600.2996 470.0947 594.2025 C 502.8884 585.0623 525.3401 557.6309 535.0129 535.038 C 545.769 505.9973 515.3115 501.6952 506.7056 485.9162 C 506.7056 503.1293 515.6671 516.7573 523.1899 523.2103 C 509.928 528.2292 502.7609 522.1322 493.0826 508.1536 C 509.3016 533.9651 474.8942 557.6309 416.8351 543.647 C 427.5857 558.7038 461.903 567.3075 479.4705 566.2347 C 452.5008 578.9759 421.4804 571.2964 396.0504 558.5499 C 375.0161 546.5096 351.3594 550.4557 339.0849 557.0043 C 346.252 547.678 354.8579 546.6051 363.4532 535.8504 C 343.0295 543.3763 324.7506 543.3763 318.571 536.1161 C 321.5228 533.4286 325.5576 531.2776 331.1957 530.4705 C 328.1962 528.1016 319.8451 525.4888 312.9701 525.3929 Z" fill="#e5b96f"/>			<g>				<path d="M 445.1054 506.7141 C 449.7667 507.0754 455.8666 505.9973 457.2949 510.6602 C 456.5727 521.0593 444.0276 527.8733 430.41 524.2828 C 443.3163 525.717 451.2001 516.7573 445.1054 506.7141 L 445.1054 506.7141 Z" fill="#e5b96f"/>				<path d="M 181.7531 507.0754 C 177.4529 507.0754 172.7916 506.7141 169.4788 507.8772 C 170.1955 518.2764 183.8342 527.8733 197.4572 524.2828 C 184.5511 525.717 178.2599 517.5644 181.7531 507.0754 Z" fill="#e5b96f"/>			</g>			<path d="M 201.2849 508.4189 C 198.333 508.2385 190.7094 508.5092 187.4868 508.1536 C 188.2991 510.0336 185.8781 511.3771 185.8781 512.9864 C 187.1312 510.4797 197.5261 509.4918 201.2849 508.4189 Z" fill="#e5b96f"/>			<path d="M 170.2858 262.9115 C 197.1598 229.5691 246.2679 212 298.3969 203.9698 C 235.804 194.3198 187.2692 210.396 152.7076 237.5461 C 158.7121 218.5221 155.6701 193.9267 144.4787 167.5416 C 147.3456 227.7793 90.72 245.704 56.3178 308.0872 C 69.9353 292.3135 91.4367 285.1435 101.5184 286.5246 C 78.419 306.3664 77.4315 339.0503 62.4974 362.7589 C 75.6902 355.0738 105.2348 346.8098 119.7495 364.5593 C 95.7369 369.7587 65.0988 419.2364 89.2865 451.5006 C 71.3635 448.6327 45.5617 459.3875 36.9611 473.0104 C 48.4286 473.0104 61.6904 482.8728 63.4849 492.3743 C 45.2008 503.1346 24.1347 529.6684 23.5985 557.0945 C 29.8684 546.1592 40.9854 541.0286 49.2249 545.442 C 69.2928 556.1971 32.0184 598.5098 37.0355 656.5912 C 41.8613 645.8418 59.6146 629.7016 72.8021 628.6181 C 59.1846 657.2975 54.1623 676.6617 52.7341 711.7995 C 51.4546 743.0174 66.7286 792.5959 86.4196 817.9241 C 76.3804 787.0884 84.2696 761.2769 97.1704 751.0373 C 97.8871 778.4846 107.6874 801.8957 122.335 820.7974 C 135.9525 838.3664 148.4977 864.5445 151.9697 895.9698 C 159.8695 875.5487 154.3587 836.8208 141.0916 802.3578 C 153.573 812.5761 168.709 822.6777 181.0364 820.7921 C 153.0793 799.9941 133.0325 771.4633 126.5609 730.4357 C 122.2606 703.1954 128.8915 673.7938 155.9462 663.0387 C 130.8612 645.8259 105.771 625.0333 85.7029 587.7445 C 72.457 563.1332 54.571 508.7643 87.1418 485.9162 C 116.4208 465.3784 161.7596 467.6727 195.5937 477.3762 C 198.7047 460.8481 174.4321 425.0996 142.5304 407.5149 C 170.3175 413.4471 211.0959 405.7783 244.8292 385.5323 C 224.7665 384.8155 169.5689 372.6266 150.9291 353.2628 C 119.93 321.0619 166.803 304.9694 198.8852 313.738 C 190.7094 301.6344 182.1141 297.3271 174.586 294.1032 C 188.5592 285.4995 205.9993 278.4304 218.3373 276.3218 C 240.5024 272.5297 263.485 270.1186 285.9792 271.7013 C 262.7524 254.3078 211.1384 245.704 170.2858 262.9115 Z" fill="#e5b96f"/>			<path d="M 318.7355 921.1865 C 319.8132 915.2699 316.0493 902.9005 307.9849 897.526 C 318.3746 900.3885 326.8424 906.5282 338.0125 910.7821 C 353.0688 916.5182 373.5721 915.3601 389.3557 903.9734 C 377.5644 921.3988 279.2208 955.3364 225.9983 895.375 C 235.4057 903.7134 241.8561 907.5374 250.7328 909.8954 C 263.5434 913.2943 279.3164 917.6013 290.0617 927.6393 C 290.7837 922.2646 279.8473 906.8413 270.7105 902.5397 C 286.1171 900.3885 300.4567 909.8954 318.7355 921.1865 Z" fill="#822a3a"/>		</g>	</g></svg>