<?xml version="1.0" standalone="no"?><!-- Generator: Adobe Fireworks CS6, Export SVG Extension by Aaron Beall (http://fireworks.abeall.com) . Version: 0.6.1  --><!DOCTYPE svg PUBLIC "-//W3C//DTD SVG 1.1//EN" "http://www.w3.org/Graphics/SVG/1.1/DTD/svg11.dtd"><svg id="Untitled-Page%201" viewBox="0 0 673 1064" style="background-color:#ffffff00" version="1.1"	xmlns="http://www.w3.org/2000/svg" xmlns:xlink="http://www.w3.org/1999/xlink" xml:space="preserve"	x="0px" y="0px" width="673px" height="1064px">	<g id="Layer%204">		<g>			<path d="M 476.9999 544.0402 C 481.9952 544.4281 488.5323 543.2705 490.0628 548.277 C 489.2889 559.4421 475.845 566.758 461.2515 562.9031 C 475.0826 564.4429 483.5313 554.8232 476.9999 544.0402 ZM 194.7768 544.4281 C 191.0332 555.6898 197.7752 564.4429 211.6062 562.9031 C 197.007 566.758 182.391 556.4541 181.623 545.2889 C 185.1731 544.0402 190.1684 544.4281 194.7768 544.4281 ZM 215.7082 545.8706 C 211.68 547.0225 200.5403 548.0832 199.1974 550.7745 C 199.1974 549.0466 201.7919 547.6041 200.9214 545.5856 C 204.3749 545.9675 212.5448 545.6768 215.7082 545.8706 ZM 329.9685 814.6235 C 388.376 826.5239 418.6949 841.9999 447.5003 849.2189 C 464.3352 865.8867 447.2955 956.4271 389.1725 959.4949 C 407.6801 966.1608 426.1935 956.1703 434.6194 951.1638 C 426.1935 969.4907 388.5125 995.0369 337.45 995.9719 C 279.6458 997.0212 244.0927 969.4907 235.678 951.1638 C 244.0927 956.1703 262.6116 966.1608 281.1306 959.4949 C 222.9907 956.4271 211.828 855.0297 226.2677 836.2978 C 241.2422 816.87 290.7969 806.6401 329.9685 814.6235 ZM 339.191 806.5775 C 293.4824 795.4127 234.7221 801.1831 206.4742 831.9809 C 202.1105 823.5245 201.0978 775.774 233.3623 752.6797 C 204.1757 741.9024 198.0313 696.4843 216.4591 679.5429 C 215.6911 722.6573 249.4918 734.9744 263.317 734.9744 C 239.5069 718.0388 228.5037 701.1373 229.522 683.3918 C 230.6713 654.527 255.4886 632.5789 278.5307 631.0395 C 293.471 630.0358 327.6017 639.0339 336.426 668.0127 C 345.2559 639.0339 379.3867 630.0358 394.3213 631.0395 C 417.3691 632.5789 442.1864 654.527 443.3356 683.3918 C 444.3483 701.1373 433.3508 718.0388 409.5349 734.9744 C 423.3602 734.9744 457.1666 722.6573 456.3928 679.5429 C 474.8264 696.4843 468.682 741.9024 439.4954 752.6797 C 471.7542 775.774 469.0062 814.6578 461.3255 828.5199 C 440.5877 833.1328 403.0034 822.1617 339.191 806.5775 ZM 335.3963 564.0948 C 342.7639 564.1978 351.7134 567.0031 354.9279 569.5466 C 348.8858 570.4131 344.5619 572.7226 341.3985 575.608 C 348.021 583.403 367.6097 583.403 389.4968 575.3227 C 380.2856 586.8697 371.063 588.0215 363.3824 598.0349 C 376.5364 591.0038 401.8882 586.7671 424.4297 599.6943 C 451.682 613.3798 484.9252 621.6249 513.8274 607.9452 C 495.0012 609.097 458.2248 599.8596 446.7038 583.6937 C 508.9232 598.7076 545.7962 573.2985 528.415 545.5856 C 538.7868 560.594 546.4675 567.1402 560.6796 561.7516 C 552.6177 554.8232 543.0141 540.1913 543.0141 521.7103 C 552.2366 538.6516 584.8767 543.2705 573.3499 574.4504 C 562.9839 598.7076 538.9235 628.1598 503.7798 637.9732 C 506.6588 644.5195 519.9094 648.3687 531.4305 648.3687 C 520.1085 657.1385 504.7471 664.0612 484.3392 662.1396 C 488.6063 669.9289 486.0403 688.7804 481.2498 699.1584 C 476.2488 672.0386 459.101 649.0871 435.2169 635.6698 C 403.7204 617.9584 371.3931 621.802 346.7466 638.7376 C 346.7466 632.9668 358.2733 621.0319 367.1033 617.7647 C 361.6756 615.9058 346.6214 621.5452 335.3963 637.5515 C 324.1653 621.5452 309.1111 615.9058 303.6835 617.7647 C 312.5191 621.0319 324.0402 632.9668 324.0402 638.7376 C 299.3936 621.802 267.0665 617.9584 235.5698 635.6698 C 211.6857 649.0871 194.5435 672.0386 189.5425 699.1584 C 184.7463 688.7804 182.1862 669.9289 186.4532 662.1396 C 166.0454 664.0612 150.6839 657.1385 139.362 648.3687 C 150.883 648.3687 164.1338 644.5195 167.0125 637.9732 C 131.8691 628.1598 107.8029 598.7076 97.4311 574.4504 C 85.9101 543.2705 118.5502 538.6516 127.7671 521.7103 C 127.7671 540.1913 118.1746 554.8232 110.107 561.7516 C 124.3249 567.1402 131.9998 560.594 142.3717 545.5856 C 124.9963 573.2985 161.8636 598.7076 224.083 583.6937 C 212.5619 599.8596 175.7856 609.097 156.9594 607.9452 C 185.8672 621.6249 219.1105 613.3798 246.3514 599.6943 C 268.9041 586.7671 294.2561 591.0038 307.4101 598.0349 C 299.7293 588.0215 290.5067 586.8697 281.29 575.3227 C 303.1828 583.403 322.7714 583.403 329.3938 575.608 C 326.2306 572.7226 321.9066 570.4131 315.8588 569.5466 C 319.0791 567.0031 328.0284 564.1978 335.3963 564.0948 ZM 182.4878 282.2783 C 226.2677 263.8033 281.5802 273.0408 306.4713 291.7157 C 282.3653 290.0163 257.7359 292.605 233.9825 296.6765 C 220.7604 298.9404 202.0706 306.5302 187.0961 315.7677 C 195.1637 319.2291 204.3749 323.8537 213.1365 336.8489 C 178.7555 327.4344 128.5237 344.7123 161.7441 379.2852 C 181.7196 400.0754 240.8724 413.1621 262.3727 413.9318 C 226.2222 435.6691 182.5218 443.9029 152.7436 437.5337 C 186.9312 456.4137 212.9431 494.7955 209.6091 512.5411 C 173.3506 502.1229 124.7631 499.6595 93.386 521.7103 C 58.4814 546.2414 77.649 604.6152 91.8441 631.0395 C 113.3501 671.0751 140.2382 693.3994 167.1206 711.8801 C 138.1273 723.4274 131.0213 754.9949 135.6297 784.2418 C 142.5651 828.2916 164.0483 858.9241 194.0088 881.254 C 180.798 883.2786 164.5775 872.4329 151.2016 861.4618 C 165.4195 898.4635 171.3251 940.0443 162.8592 961.9696 C 159.1385 928.2295 145.6943 900.1229 131.101 881.2598 C 115.4039 860.9657 104.9013 835.8301 104.1332 806.3609 C 90.308 817.3547 81.8535 845.0676 92.6121 878.1748 C 71.5101 850.981 55.1417 797.7502 56.5128 764.2327 C 58.0434 726.5066 63.4256 705.7161 78.0188 674.924 C 63.8864 676.0873 44.8609 693.4164 39.6893 704.9577 C 34.3127 642.5978 74.2581 597.1683 52.7522 585.6209 C 43.9223 580.8823 32.0087 586.391 25.2894 598.1317 C 25.8641 568.6853 48.4397 540.197 68.0339 528.644 C 66.1109 518.4427 51.8988 507.8538 39.6096 507.8538 C 48.8265 493.2273 76.4771 481.6803 95.6844 484.7595 C 69.7636 450.1186 102.597 396.9962 128.3303 391.4138 C 112.7755 372.3568 81.1139 381.2296 66.9757 389.4808 C 82.98 364.0258 84.0382 328.9343 108.7928 307.6308 C 97.9886 306.148 74.9465 313.8461 60.3533 330.7817 C 97.2206 263.8033 157.9038 244.5582 154.8315 179.8832 C 166.8248 208.2119 170.0848 234.619 163.65 255.0445 C 200.6881 225.8944 252.7007 208.634 319.7788 218.9949 C 263.9145 227.6165 211.2875 246.4798 182.4878 282.2783 ZM 336.5 0 L 336.3121 0 C 320.1828 0 298.2274 1.3 275.3787 8.5875 C 241.5836 19.3648 214.3143 29.3721 171.6779 61.7097 C 148.2773 79.4609 114.0669 121.7601 103.7007 184.1199 C 120.9852 142.5449 129.8151 134.6588 137.1147 132.7254 C 135.5729 168.1478 106.005 187.587 101.3967 226.0714 C 114.6415 212.9904 126.9364 219.1089 106.005 245.9039 C 76.6249 273.0408 23.0421 346.9477 35.718 425.4791 C 35.718 371.1992 61.0701 345.7901 75.2823 341.559 C 47.2392 389.6803 47.2392 428.9459 55.3068 442.8026 C 57.6109 413.9318 69.132 404.6886 78.3546 401.6151 C 58.0434 424.8975 64.1936 448.5731 68.7963 462.4352 C 40.3778 458.5864 7.3508 500.1557 0 566.3644 C 11.5211 547.8891 27.6505 537.4997 36.873 540.197 C 9.2169 577.9171 3.8403 622.566 11.5211 656.4486 C 14.9802 620.6501 20.7378 611.4122 28.8054 609.097 C 36.873 624.1168 35.718 644.8959 27.6505 666.4562 C 21.3409 683.3291 -1.155 747.679 9.2169 797.3342 C 12.6759 762.693 19.5885 741.9024 29.1867 735.7441 C 19.5885 780.0165 23.0478 834.2847 30.7284 857.3789 C 32.2647 830.8293 38.4036 821.5915 44.9349 816.9725 C 51.0795 897.8135 81.8079 953.2393 125.5937 989.0382 C 116.3712 967.4836 112.9176 950.9298 117.5262 941.6923 C 137.8827 947.8621 140.5739 999.4332 164.3897 1023.6737 C 160.1568 993.6571 168.2244 977.4968 176.6732 982.104 C 188.1259 988.3539 195.8805 1018.6783 200.489 1034.0746 C 198.236 1013.2897 212.5107 1007.1143 223.5312 1009.8287 C 247.0169 1015.5991 265.8318 1034.4624 273.5126 1053.3253 C 275.242 1045.6272 276.5849 1039.8564 273.5126 1035.2321 C 297.135 1035.2321 327.5619 1053.5647 336.3121 1064 L 336.5 1063.7773 L 336.6934 1064 C 345.4381 1053.5647 375.8707 1035.2321 399.4874 1035.2321 C 396.4151 1039.8564 397.7635 1045.6272 399.4874 1053.3253 C 407.168 1034.4624 425.9886 1015.5991 449.4689 1009.8287 C 460.4892 1007.1143 474.7697 1013.2897 472.5109 1034.0746 C 477.1193 1018.6783 484.874 988.3539 496.3268 982.104 C 504.7756 977.4968 512.843 993.6571 508.616 1023.6737 C 532.4261 999.4332 535.1171 947.8621 555.4681 941.6923 C 560.0822 950.9298 556.6288 967.4836 547.4063 989.0382 C 591.1919 953.2393 621.9205 897.8135 628.0649 816.9725 C 634.5964 821.5915 640.7354 830.8293 642.2771 857.3789 C 649.9579 834.2847 653.4113 780.0165 643.8133 735.7441 C 653.4113 741.9024 660.3239 762.693 663.7831 797.3342 C 674.1548 747.679 651.6589 683.3291 645.3494 666.4562 C 637.2818 644.8959 636.1325 624.1168 644.2001 609.097 C 652.262 611.4122 658.0196 620.6501 661.4731 656.4486 C 669.1595 622.566 663.7831 577.9171 636.1325 540.197 C 645.3494 537.4997 661.4731 547.8891 673 566.3644 C 665.6492 500.1557 632.6279 458.5864 604.1979 462.4352 C 608.8121 448.5731 614.9567 424.8975 594.6454 401.6151 C 603.868 404.6886 615.389 413.9318 617.6932 442.8026 C 625.7608 428.9459 625.7608 389.6803 597.7234 341.559 C 611.9299 345.7901 637.2818 371.1992 637.2818 425.4791 C 649.9579 346.9477 596.3807 273.0408 566.9948 245.9039 C 546.0636 219.1089 558.3528 212.9904 571.5977 226.0714 C 566.9948 187.587 537.4214 168.1478 535.8851 132.7254 C 543.1904 134.6588 552.0146 142.5449 569.2991 184.1199 C 558.9272 121.7601 524.7227 79.4609 501.3221 61.7097 C 458.6857 29.3721 431.4164 19.3648 397.6157 8.5875 C 374.7726 1.3 352.8172 0 336.6934 0 L 336.5 0 Z" fill="#ffffff"/>			<g>				<path d="M 344.1066 686.4767 C 358.7057 684.1615 380.9798 666.4562 393.2745 655.6789 C 405.5637 644.8959 412.482 663.7589 423.2349 676.0759 C 404.7957 669.1531 390.3502 686.6765 384.0519 691.0956 C 372.531 699.1755 356.4015 696.866 344.1066 686.4767 L 344.1066 686.4767 Z" fill="#ffffff"/>				<path d="M 328.751 686.4767 C 314.1519 684.1615 291.878 666.4562 279.5832 655.6789 C 267.294 644.8959 260.3757 663.7589 249.6228 676.0759 C 268.062 669.1531 282.5074 686.6765 288.8 691.0956 C 300.3267 699.1755 316.4562 696.866 328.751 686.4767 Z" fill="#ffffff"/>			</g>			<path d="M 341.5748 989.0438 C 342.7298 982.6914 338.6961 969.4109 330.0539 963.6404 C 341.188 966.7139 350.2626 973.3057 362.2332 977.873 C 378.3683 984.0317 400.3408 982.7883 417.2554 970.5627 C 404.6191 989.2719 299.2286 1025.7094 242.1924 961.3309 C 252.274 970.2836 259.1866 974.3892 268.6993 976.9209 C 282.4279 980.5703 299.3311 985.1946 310.8464 995.9719 C 311.6201 990.2014 299.9001 973.642 290.1086 969.0233 C 306.6191 966.7139 321.9863 976.9209 341.5748 989.0438 Z" fill="#ffffff"/>		</g>	</g></svg>