<?xml version="1.0" standalone="no"?>
<!DOCTYPE svg PUBLIC "-//W3C//DTD SVG 1.1//EN" "http://www.w3.org/Graphics/SVG/1.1/DTD/svg11.dtd" >
<svg>
<metadata>
Created by FontForge 20090622 at Fri Jul 31 01:21:09 2015
 By deploy user
</metadata>
<defs>
<font id="YeahPapa" horiz-adv-x="304" >
  <font-face 
    font-family="Yeah Papa"
    font-weight="400"
    font-stretch="normal"
    units-per-em="1000"
    panose-1="0 0 0 0 0 0 0 0 0 0"
    ascent="750"
    descent="-250"
    x-height="628"
    cap-height="613"
    bbox="-15.1429 -33 636.043 808"
    underline-thickness="50"
    underline-position="-50"
    unicode-range="U+000D-U+02DC"
  />
<missing-glyph horiz-adv-x="159" 
 />
    <glyph glyph-name=".notdef" horiz-adv-x="159" 
 />
    <glyph glyph-name="NULL" horiz-adv-x="0" 
 />
    <glyph glyph-name="NULL" horiz-adv-x="0" 
 />
    <glyph glyph-name="nonmarkingreturn" unicode="&#xd;" horiz-adv-x="159" 
 />
    <glyph glyph-name="space" unicode=" " horiz-adv-x="159" 
 />
    <glyph glyph-name="e" unicode="e" horiz-adv-x="242" 
d="M117 52q24 -2 39.5 -4t26 -6.5t18 -12t16.5 -19.5q7 -8 -11 -14t-46.5 -8.5t-59 -1t-46.5 7.5q-12 4 -18 14.5t-8.5 22.5t-2.5 23t-1 17q-2 103 -5 204.5l-6 204.5q-1 24 -1 48.5t-1 49.5q0 11 2 20.5t7 18.5q6 8 11.5 11t15.5 -2q12 -6 32.5 -7.5t33.5 -0.5
q13 0 25.5 0.5t25.5 -0.5q15 -1 28 -6.5t21 -18.5t4 -23t-20 -10q-8 -1 -15.5 1t-15.5 3q-5 2 -10.5 3t-10.5 1q-20 2 -28 -6t-9 -28q0 -11 0.5 -22t1.5 -22q2 -38 3 -75t3 -74q1 -14 4.5 -18.5t16.5 -8.5q6 -2 12 -2t11 -1q14 -1 27 -4q6 -2 10.5 -5.5t5.5 -11.5
q4 -16 -10 -21q-8 -4 -14.5 -4.5t-15.5 -3.5q-5 -1 -9.5 -1t-9.5 -1q-13 -3 -19.5 -12.5t-7.5 -22.5q-1 -43 -0.5 -85.5t0.5 -86.5z" />
    <glyph glyph-name="f" unicode="f" horiz-adv-x="208" 
d="M187 592q2 -2 1 -5.5t-4 -3.5h-20.5t-18.5 -2q-64 -7 -79 -73q-5 -25 -5 -49.5t3 -49.5q2 -18 6 -34q6 -29 33 -30q35 -4 57 -37q12 -16 -4 -26q-7 -4 -14.5 -5.5t-14.5 -3.5q-4 -2 -7.5 -1.5t-7.5 -0.5q-24 -5 -34.5 -16t-12.5 -37q-1 -8 -1 -17v-18q1 -33 1.5 -66.5
t0.5 -66.5q0 -20 -5 -43q-2 -8 -7 -15.5t-13 -9.5q-10 -2 -16.5 5.5t-9.5 15.5q-5 13 -8 26l-6 27q-1 5 -0.5 9t0.5 9q0 127 -0.5 252t-0.5 252q0 25 7 35.5t30 17.5q84 22 150 -39z" />
    <glyph glyph-name="g" unicode="g" horiz-adv-x="314" 
d="M138 605q-5 -26 -9 -51.5t-7 -51.5q-12 -97 -14 -194t8 -196q1 -8 2.5 -15.5t4.5 -13.5q6 -13 13.5 -13.5t15.5 10.5q35 52 37 115q1 34 -15.5 64.5t-35.5 59.5q-1 2 -1 3.5t-1 3.5q5 9 16.5 15.5t24.5 10t26.5 4t22.5 -2.5q17 -4 28 -16t11 -32q-1 -34 -2.5 -67.5
t-5.5 -67.5q-3 -42 -14 -88q-8 -28 -23 -50q-8 -11 -21 -18t-28.5 -11t-31.5 -4t-28 3q-36 10 -56.5 35.5t-30.5 61.5q-4 14 -6 30l-4 32q-7 96 0 190t24 187q4 17 10 33t13 32q14 33 49 50q14 6 32 7.5t35.5 -2.5t32.5 -13t22 -23t10.5 -29.5t5.5 -31.5q2 -20 1.5 -39.5
t-2.5 -39.5q-1 -10 -5.5 -19t-10.5 -17q-4 -7 -11.5 -10t-16 -2.5t-16 4.5t-11.5 11q-7 10 -8.5 21.5t-0.5 23.5q1 9 3 17.5t1 17.5l-2 26.5t-4 26.5q-5 20 -27 23z" />
    <glyph glyph-name="h" unicode="h" horiz-adv-x="278" 
d="M0 317v250q0 22 4 30.5t18 14.5q15 5 28.5 0.5t21.5 -19.5q6 -11 10 -24t5 -26q3 -45 0.5 -88t-7.5 -87q-1 -5 -1.5 -9t-0.5 -9q-2 -10 0 -18.5t12 -14.5q10 -5 20 -4.5t17 10.5q15 20 19 41q11 63 18 124q4 29 6.5 57.5t5.5 57.5q2 19 6.5 25.5t16.5 9.5t24 -1.5
t18 -17.5q4 -9 6.5 -19t2.5 -20q1 -18 -1 -36l-4 -35q-14 -117 -19 -233t-3 -234q0 -23 -5 -31.5t-19 -13.5q-15 -5 -28 1t-20 23q-4 11 -6.5 22t-2.5 22q-1 35 -0.5 68.5t0.5 68.5q0 20 -3.5 27.5t-14.5 10.5q-14 4 -25 -3t-16 -24q-3 -10 -4 -20t-1 -20q-1 -38 -1 -76v-76
q0 -20 -4 -27.5t-17 -12.5q-26 -8 -43 20q-8 15 -10 32.5t-2 34.5q-1 57 -1 114.5v114.5v20z" />
    <glyph glyph-name="i" unicode="i" horiz-adv-x="143" 
d="M80 288q2 -64 2.5 -128t1.5 -128q0 -33 -30 -24q-32 9 -38 40q-8 36 -9 72q-5 73 -6.5 145.5t1.5 145.5l4 72t6 72q2 20 12 39q11 20 29 19t28 -21q8 -14 9.5 -28t0.5 -29l-4 -99l-4 -99v-49h-3z" />
    <glyph glyph-name="j" unicode="j" horiz-adv-x="311" 
d="M130 69q13 36 21.5 72t10.5 74q3 57 4.5 114.5t3.5 115.5q1 31 1 61t2 61q0 10 1 19.5t4 17.5q6 16 19 29q15 12 30.5 7t21.5 -23q5 -13 5 -32q-1 -48 -1 -95t-2 -95q-5 -72 -13 -142.5t-21 -140.5q-5 -25 -12 -48t-21 -44q-11 -16 -25 -27.5t-34 -14.5q-36 -4 -64 22
q-40 39 -45 96q-2 27 -2 54.5t-2 55.5q-1 15 -3.5 30.5t-6.5 30.5q-3 13 -1.5 23.5t12.5 19.5q26 21 52 7q17 -10 25.5 -25.5t10.5 -34.5q2 -16 0.5 -32t-2.5 -32q-1 -18 -2.5 -35.5t0.5 -34.5q2 -34 33 -54z" />
    <glyph glyph-name="k" unicode="k" horiz-adv-x="318" 
d="M111 376q17 13 26.5 27.5t14.5 31.5q6 18 10.5 36l9.5 37l10 32t13 32q9 20 28 34q17 14 33.5 7t17.5 -30q1 -12 -1.5 -24.5t-7.5 -23.5l-40 -111l-42 -110q-26 -64 1 -128l18.5 -40.5l19.5 -41.5q8 -18 14 -37t8 -39q1 -13 -0.5 -26t-9.5 -27q-29 22 -48.5 49t-33.5 57
t-24 62.5l-20 65.5q-3 -4 -5.5 -7t-4.5 -6q-32 -63 -20 -135q2 -4 2 -7q4 -17 1 -25.5t-15 -14.5q-14 -6 -28 -4t-22 13q-5 8 -9.5 18t-5.5 20q-2 17 -1.5 33t2.5 33l36 360q2 28 1 55t-13 54q-9 20 9 36q17 17 41 8q17 -7 26 -20.5t12 -30.5q2 -11 2.5 -22t-0.5 -22
l-2 -73.5t-3 -73.5v-22z" />
    <glyph glyph-name="l" unicode="l" horiz-adv-x="258" 
d="M239 -2q-23 0 -50 -0.5t-50 0.5q-19 1 -37 4t-36 5q-5 1 -11 2.5t-11 3.5q-23 8 -33.5 13.5t-10.5 29.5q0 28 0.5 55t1.5 55q4 103 7.5 206t8.5 206q0 25 9 46q10 26 35 9q27 -18 32 -50q4 -22 6.5 -44.5t3.5 -45.5q1 -85 0.5 -168.5t0.5 -168.5q0 -34 6 -67
q5 -23 25 -28t45 -8q16 -2 33 -6q33 -10 25 -49z" />
    <glyph glyph-name="m" unicode="m" horiz-adv-x="430" 
d="M367 588q10 -34 10 -74l-4 -192l-4 -191q-1 -20 -1 -38.5v-37.5q0 -10 -1 -15q-2 -38 -27 -42q-13 -2 -26 5t-19 21q-10 22 -9 40q1 28 2.5 55.5t4.5 55.5q3 35 7 69.5t-4 69.5q-3 14 -7.5 26t-8.5 25h-6l-6 -15q-17 -70 -26.5 -140t-13.5 -142q-1 -21 -5.5 -29
t-18.5 -10q-17 -3 -32 4.5t-20 23.5q-3 13 -4 26.5t-1 27.5q-1 10 0.5 19.5t1.5 19.5v6q-2 24 -9 60.5t-15 71.5q-9 40 -20 83q0 -3 -0.5 -6.5t-0.5 -7.5q-1 -24 -2.5 -72l-3 -101l-3 -101t-2.5 -72q-2 -35 -35 -29q-15 3 -26 12t-15 24q-8 29 -8 58q0 78 0.5 155.5
t0.5 155.5q1 48 0.5 94.5t0.5 94.5q0 10 1 19.5t4 19.5q5 15 16 18.5t25 -4.5q11 -6 20 -17q74 -76 92 -173l15 -68l12 -56.5t10 -45.5q3 16 6.5 38.5l7 45l7 43.5t6.5 36l19 89l18 89q7 31 39 27q23 -4 38 -16t20 -33z" />
    <glyph glyph-name="n" unicode="n" horiz-adv-x="292" 
d="M189 357q15 49 17 98t-3 100q-1 11 -1 21.5t2 20.5q1 6 4 11.5t7 10.5q14 16 31.5 14t25.5 -22q7 -17 7 -39q0 -24 -1.5 -48.5t-3.5 -48.5q-8 -109 -15 -215.5t-15 -214.5q-1 -9 -1.5 -17.5t-1.5 -17.5q-2 -15 -11 -21t-23 -1q-19 8 -31 24q-14 17 -19 38.5t-7 43.5
q-3 29 -5 58.5t-5 58.5q-1 9 -6 37t-12 59.5t-14.5 58.5t-13.5 33q-2 2 -5 3.5t-8 5.5q-1 -10 -1 -16.5v-13.5q-1 -27 -1.5 -74.5l-1 -99l-1 -99t-0.5 -74.5q-1 -21 -7 -30.5t-21 -12.5q-17 -4 -23 3t-14 24q-8 16 -10 33.5t-1 34.5q4 55 7 109l6 109q4 69 7.5 137.5
t7.5 137.5q1 12 4 21.5t17 14.5q11 3 23 -1t20 -17q11 -16 17 -33l37 -94.5l36 -94.5q2 -4 3.5 -7.5t3.5 -7.5z" />
    <glyph glyph-name="o" unicode="o" horiz-adv-x="326" 
d="M18 245q-2 35 -3 65t-0.5 57.5t2.5 54.5t6 56q3 24 9.5 46.5t19.5 43.5q13 22 30.5 37.5t41.5 23.5q59 18 97 -30q12 -14 18.5 -30.5t11.5 -34.5q8 -35 12.5 -70t3.5 -70q-2 -72 -1 -142.5t-1 -141.5q-1 -20 -4.5 -34t-10.5 -33q-8 -22 -28.5 -35.5t-45.5 -18t-51 0.5
t-45 20q-20 15 -31 40.5t-17 57t-9 67t-5 70.5zM181 109q1 30 1.5 61.5t0.5 62.5q0 27 1 59l2 65t1.5 64.5t0.5 58.5q-2 15 -4 32t-8 31q-3 10 -17 13t-25 1q-12 -3 -19.5 -14t-9.5 -20q-7 -38 -12 -81.5t-7.5 -88t-1.5 -88t7 -82.5q4 -35 15 -68t24.5 -50t27.5 -10t23 54z
" />
    <glyph glyph-name="p" unicode="p" horiz-adv-x="278" 
d="M144 624q41 -15 67 -40.5t38.5 -57.5t13 -67.5t-8 -70.5t-24.5 -66.5t-38 -54.5l-9 -9q-15 -7 -28 -4.5t-24.5 5.5t-20 2t-13.5 -13q-2 -4 -2 -23v-45.5t-0.5 -57t-3 -57.5t-8 -47.5t-15.5 -26.5q-16 -9 -25.5 -8t-23.5 16q-15 15 -20 33t-3 39q13 122 16 242.5t-3 242.5
q0 17 -0.5 33.5t-0.5 34.5q35 15 68 14t68 -14zM160 334q11 42 11.5 84t-7.5 85q-3 17 -9 34q-5 15 -22.5 18.5t-37.5 -1.5q0 -14 1 -29t0 -30q0 -31 -0.5 -62t0.5 -62q0 -9 1.5 -21t6 -22t15 -15t28.5 -2q5 1 6 4t3 5q2 4 4 14z" />
    <glyph glyph-name="q" unicode="q" horiz-adv-x="318" 
d="M214 71q26 -10 46 -24t34 -40l-42.5 -9.5t-41.5 -8.5q-19 -3 -37.5 -5.5t-37.5 -4.5q-44 -5 -69 10.5t-39 57.5q-18 55 -23.5 111.5t-2.5 114.5q5 64 15.5 126.5t27.5 124.5q6 22 15 42.5t24 37.5q20 25 48.5 33.5t56.5 -1.5q30 -9 40 -37q26 -72 36.5 -145t5.5 -149
q-9 -121 -56 -234zM194 411l-4 54l-4 54q-1 5 -3.5 12.5t-5.5 7.5q-15 0 -26 -8q-11 -10 -17 -23t-8 -27l-14 -75t-12 -75q-7 -55 -8 -110t1 -110q1 -7 1.5 -14t8.5 -9q6 -1 13.5 1.5t12.5 6.5q13 9 19 22.5t10 28.5q34 129 36 264z" />
    <glyph glyph-name="r" unicode="r" horiz-adv-x="347" 
d="M312 54q11 -14 11.5 -23t-7.5 -20q-10 -11 -24.5 -15.5t-27.5 3.5q-18 12 -29 27q-7 11 -12.5 23t-10.5 25l-28.5 75.5l-29.5 75.5q-2 4 -7.5 5.5t-11.5 1.5t-11.5 -1.5t-6.5 -5.5q-8 -20 -12 -39.5t-6 -39.5q-6 -58 5 -119q3 -21 -5.5 -32.5t-22 -14.5t-28.5 2t-26 18
q-27 30 -21 74q16 121 20 241.5t2 242.5v68q38 11 69 10t69 -14q61 -24 94 -69t40.5 -96.5t-7.5 -102t-48 -84.5q-6 -6 -9 -8v-1q2 -56 24 -107.5t57 -99.5zM175 547q-4 9 -11.5 12.5t-16.5 4t-18 -0.5t-17 -1l-6 -111.5l-6 -110.5q5 -11 24 -20t41 -15q4 2 6.5 3t4.5 3
q9 13 12 39t3.5 54.5t-1 55.5t-1.5 44q0 11 -4.5 21.5z" />
    <glyph glyph-name="s" unicode="s" horiz-adv-x="278" 
d="M118 385q22 -29 42.5 -42t37.5 -25t29 -31.5t17 -61.5t-2.5 -82.5t-22.5 -80.5q-5 -14 -14 -27t-20 -24q-7 -8 -21 -12.5t-29.5 -5t-30.5 1.5t-24 8q-24 15 -39 39.5t-23 54.5t-11.5 63t-6.5 65q-1 11 1 21l4 20q3 10 12 21q20 20 46 8q12 -5 15.5 -12t0.5 -22
q-15 -75 16 -145q16 -33 25 -36.5t14 10.5t8 38t7 46q2 15 3.5 30t3.5 30q1 48 -42 75q-5 3 -8.5 6t-8.5 5q-73 43 -90 122q-10 48 0 92.5t46 82.5q16 17 38 30q50 28 94 -7q18 -14 30 -33q15 -23 24 -53.5t10 -62.5t-6 -64t-22 -59q-14 7 -23 9t-14.5 6t-7.5 12.5t0 28.5
q0 5 0.5 23.5t0.5 41.5t-2.5 46t-8 38.5t-16 19t-27.5 -13.5q-16 -16 -23.5 -41.5t-7.5 -53t7 -54.5t19 -45z" />
    <glyph glyph-name="u" unicode="u" 
d="M129 73q14 -2 19.5 25.5t7 66t1 79t0.5 63.5q3 57 4 113t3 113q1 14 3.5 28.5t7.5 28.5q8 21 26.5 31t39.5 8q15 -2 20 -8t3 -21q-3 -45 -7 -89l-8 -89q-7 -75 -6.5 -149t-7.5 -149q-2 -20 -4.5 -39.5t-7.5 -38.5q-6 -23 -20.5 -38.5t-34 -23t-41.5 -6.5t-44 11
q-23 11 -40 27.5t-25 40.5q-7 20 -12.5 42t-5.5 43q0 170 6 341q2 25 3 50t9 49q4 22 18 35t28 14.5t24 -10.5t6 -41q3 -39 3 -76q-2 -80 1 -159t1 -158q1 -10 0 -29.5t0.5 -39t7.5 -33.5t22 -12z" />
    <glyph glyph-name="t" unicode="t" horiz-adv-x="263" 
d="M63 580q-20 1 -36 3q-12 0 -21 6q-10 5 -16 15t-5 20q3 22 29 25q58 4 118 6q17 1 34 -0.5t34 -3.5q11 -2 20.5 -7l19.5 -10q8 -4 12.5 -12t1.5 -21q-25 -1 -49.5 -3.5t-50.5 -10.5q1 -149 0.5 -294.5t0.5 -292.5q-23 -13 -47 -5.5t-38 32.5q-11 17 -14 35.5t-3 38.5
v33.5t1 33.5q2 99 5 197t5 197q1 5 0 9t-1 9z" />
    <glyph glyph-name="v" unicode="v" horiz-adv-x="300" 
d="M0 620q16 14 31 15t31 -8q50 -26 54 -88v-31t-1 -62.5t-2 -78.5t-1.5 -78.5t-0.5 -62.5t1 -31q2 -12 8.5 -21.5t21.5 -11.5q3 4 6 29.5t6 61.5t5.5 77.5t4.5 78t3 62.5t2 31q2 15 3 30t4 30q7 44 47 57q21 7 33.5 -5t9.5 -37q-3 -23 -7 -44.5t-9 -44.5l-78 -438
q-2 -8 -2 -13q-3 -20 -11 -34t-27 -19q-16 -3 -34 7t-26 30q-12 30 -15 64q-3 46 -5 91.5t-5 92.5q-5 85 -16.5 167.5t-28.5 165.5q-1 4 -1 8.5t-1 9.5z" />
    <glyph glyph-name="x" unicode="x" horiz-adv-x="300" 
d="M0 605q10 25 38 23q24 1 41 -18t28 -48.5t17.5 -65.5t10.5 -68.5t6.5 -57.5t5.5 -33q0 4 1 22t2.5 42t3 51.5t3 51.5t3 41t1.5 21q2 18 9.5 33t23.5 25q27 18 50 0q12 -9 15 -22.5t-6 -26.5q-19 -26 -28.5 -59t-13.5 -69.5t-5 -73.5t-4 -71q0 -27 8.5 -60t19 -67l21 -66
t14 -57.5t-2.5 -40.5t-27 -15q-32 -1 -48 13.5t-22.5 39.5t-6.5 56.5t1 64t0.5 62.5t-9.5 52q-9 -17 -18.5 -55.5t-17.5 -82l-16 -83.5t-14 -59q-41 -15 -58 -6.5t-19 33t7 60t20.5 74l22 76t11.5 65.5q4 57 3 98t-8 72t-19 56t-29 50l-7.5 11.5z" />
    <glyph glyph-name="w" unicode="w" horiz-adv-x="503" 
d="M397 626q16 8 31 8t31 -15q-1 -5 -1 -9t-1 -9q-15 -83 -25 -165.5t-14 -167.5q-2 -47 -3.5 -92.5t-3.5 -91.5q-1 -33 -14 -64q-7 -20 -25 -30.5t-34 -7.5q-20 4 -28 18t-11 34q0 3 -1 6.5t-1 6.5l-35.5 180l-35.5 180l-42 -180.5l-42 -180.5q-1 -3 -2 -6.5t-1 -6.5
q-4 -20 -12.5 -34t-27.5 -17q-17 -2 -34.5 9t-24.5 31q-5 16 -7.5 32t-3.5 33q-1 46 -0.5 91.5t0.5 92.5q-1 85 -8.5 168t-19.5 167v8.5t-1 9.5q17 14 32 13.5t30 -9.5q23 -14 36 -36.5t14 -54.5q0 -5 -2 -31t-4.5 -62.5l-5.5 -78l-5.5 -78t-4 -62.5t-0.5 -31q2 -12 7.5 -22
t19.5 -12q3 4 7.5 29t9.5 61t9.5 77l8.5 77.5l7 62.5t4 31l4 29t5 30q3 14 9.5 23.5t14.5 17.5q10 26 40 17q40 -12 49 -56q2 -15 3.5 -30t3.5 -30q1 -5 2.5 -31t4.5 -62t6 -77.5t6.5 -77.5t7 -61.5t6.5 -29.5q15 1 21 11t8 22q1 5 0.5 31t-1.5 62.5t-3 78.5t-3 78.5
t-2 62.5t-1 31q4 61 53 89z" />
    <glyph glyph-name="z" unicode="z" horiz-adv-x="316" 
d="M260 14q-17 -10 -42 -17.5t-52 -12.5t-53 -6t-45 3q-35 8 -54 36t-12 65q5 28 12.5 55t16.5 54q26 85 57 165.5t69 160.5q10 22 6 34.5t-31 22.5q-6 2 -13 2.5t-13 3.5q-11 5 -21.5 10.5t-18.5 13.5q-9 9 -6 18t16 11q45 9 83 7t82 -15q8 -2 16 -8q18 -11 21.5 -23
t-6.5 -32l-73 -149.5t-63 -153.5q-10 -30 -17.5 -60l-15.5 -61q-3 -11 -3 -21.5t1 -21.5q1 -9 16 -16.5t34 -14t38 -11.5t28 -8q11 -4 23 -9t20 -22z" />
    <glyph glyph-name="d" unicode="d" horiz-adv-x="290" 
d="M229 234l-4 -61t-6 -65q-2 -16 -6 -31.5t-10 -30.5q-24 -67 -94 -58q-16 2 -31.5 6t-30.5 9q-24 8 -33.5 23t-9.5 41q2 61 2.5 121.5t2.5 120.5l2 132l2 132q1 4 1 8v9q5 42 42 45q23 3 46 2.5t46 -6.5q26 -7 44 -23.5t24 -45.5q5 -26 8.5 -52.5t5.5 -52.5
q5 -54 3.5 -109t-4.5 -114zM157 315q2 42 2.5 82.5t1.5 82.5q0 15 -2.5 29.5t-10.5 28.5q-9 18 -25.5 20t-30.5 -13q-12 -10 -15 -25q-5 -23 -3 -47q4 -56 6.5 -112t-0.5 -113q-2 -42 -5 -82.5t-5 -81.5q-1 -9 1 -12t10 -4q12 -2 24 3q30 11 39 42q7 28 9 60q2 35 3 70.5
t1 71.5z" />
    <glyph glyph-name="A" unicode="A" horiz-adv-x="302" 
d="M266 7q-19 -14 -31.5 -10.5t-23.5 24.5q-8 15 -10 31t-3 33q-1 14 -1.5 26.5t-1.5 26.5q-1 6 -3 12l-4 12q-11 25 -31 29.5t-38 -14.5q-23 -24 -29 -60q-3 -18 -5 -36.5t-5 -36.5q-2 -13 -6 -24.5t-12 -22.5q-8 -12 -18.5 -15t-26.5 11q-15 13 -17 37v21t1 20
q12 99 16.5 196.5t16.5 196.5q2 62 25 106t86 60q37 1 58.5 -14t32 -37t13.5 -47t3 -43q-2 -41 -2 -71.5t1 -59.5t3.5 -60t5.5 -72q4 -54 2 -106t3 -106q0 -5 1 -7zM114 392h1q0 -27 -0.5 -54.5t0.5 -54.5q0 -23 19 -23q17 -2 30 10.5t16 32.5q2 13 2 25.5v25.5q1 29 -1 58
t-1 58q4 25 -5 45.5t-22 28t-25.5 -2t-13.5 -45.5v-104z" />
    <glyph glyph-name="B" unicode="B" 
d="M233 454q-2 -77 -29 -135q-8 -16 -5.5 -29t12.5 -26l8 -10.5l8 -10.5q16 -22 23.5 -48t7.5 -53t-8 -52.5t-24 -46.5q-14 -19 -33 -32t-40.5 -19t-44 -5.5t-43.5 8.5q-44 17 -50 67q-3 20 -4.5 41t-2.5 41q-5 110 -7 218.5t-1 218.5q0 17 13 28q26 20 52.5 23t55.5 -6
q47 -15 73.5 -49.5t34.5 -85.5q2 -11 2.5 -20.5t1.5 -16.5zM63 307q29 -1 53 19q27 24 35 61q8 32 8 64t-5 64q-2 8 -5 15t-7 14q-9 16 -26 22q-12 4 -23 0t-18 -15t-10 -27q-3 -18 -3 -37v-164q1 -5 1 -16zM78 118q1 -11 1.5 -22.5t2.5 -22.5q5 -22 20 -27.5t32 6.5
q7 4 14 13q12 13 20 31t11 37.5t1.5 39.5t-8.5 37q-6 13 -17 16q-15 3 -29.5 2.5t-28.5 -5.5q-17 -6 -25 -26q-2 -6 -2 -11.5t2 -11.5q8 -14 8 -28t-2 -28z" />
    <glyph glyph-name="C" unicode="C" horiz-adv-x="267" 
d="M206 268q2 -44 5 -86t-1 -85q-4 -28 -14.5 -45t-32.5 -34q-13 -11 -29.5 -15t-33.5 -2.5t-32.5 8.5t-25.5 20q-17 21 -27.5 39.5t-11.5 44.5q1 58 5 115.5t5 116.5q1 34 1 68t1 69q0 40 14 79q16 45 53 67q15 8 32.5 10t34 -2t30.5 -14.5t22 -26.5q15 -28 18 -57t0 -61
q0 -6 -3 -12t-9.5 -12t-14.5 -9.5t-15.5 -4.5t-12.5 4q-11 12 -12 34.5t-1 40.5q-3 37 -11.5 44t-18 -3.5t-17 -32.5t-7.5 -43q-1 -32 -4.5 -64t-1.5 -65l4 -108l4 -108q0 -7 0.5 -9.5t1 -4.5t1 -4.5t0.5 -9.5l2 -13.5t4 -13.5q8 -21 21 -1q7 14 7 28q1 15 2.5 25t2.5 19
t1.5 19t1.5 25q2 14 5 33t11 30q6 10 19 9.5t27 -2.5z" />
    <glyph glyph-name="D" unicode="D" horiz-adv-x="290" 
d="M229 234l-4 -61t-6 -65q-2 -16 -6 -31.5t-10 -30.5q-24 -67 -94 -58q-16 2 -31.5 6t-30.5 9q-24 8 -33.5 23t-9.5 41q2 61 2.5 121.5t2.5 120.5l2 132l2 132q1 4 1 8v9q5 42 42 45q23 3 46 2.5t46 -6.5q26 -7 44 -23.5t24 -45.5q5 -26 8.5 -52.5t5.5 -52.5
q5 -54 3.5 -109t-4.5 -114zM157 315q2 42 2.5 82.5t1.5 82.5q0 15 -2.5 29.5t-10.5 28.5q-9 18 -25.5 20t-30.5 -13q-12 -10 -15 -25q-5 -23 -3 -47q4 -56 6.5 -112t-0.5 -113q-2 -42 -5 -82.5t-5 -81.5q-1 -9 1 -12t10 -4q12 -2 24 3q30 11 39 42q7 28 9 60q2 35 3 70.5
t1 71.5z" />
    <glyph glyph-name="E" unicode="E" horiz-adv-x="246" 
d="M117 52q24 -2 39.5 -4t26 -6.5t18 -12t16.5 -19.5q7 -8 -11 -14t-46.5 -8.5t-59 -1t-46.5 7.5q-12 4 -18 14.5t-8.5 22.5t-2.5 23t-1 17q-2 103 -5 204.5l-6 204.5q-1 24 -1 48.5t-1 49.5q0 11 2 20.5t7 18.5q6 8 11.5 11t15.5 -2q12 -6 32.5 -7.5t33.5 -0.5
q13 0 25.5 0.5t25.5 -0.5q15 -1 28 -6.5t21 -18.5t4 -23t-20 -10q-8 -1 -15.5 1t-15.5 3q-5 2 -10.5 3t-10.5 1q-20 2 -28 -6t-9 -28q0 -11 0.5 -22t1.5 -22q2 -38 3 -75t3 -74q1 -14 4.5 -18.5t16.5 -8.5q6 -2 12 -2t11 -1q14 -1 27 -4q6 -2 10.5 -5.5t5.5 -11.5
q4 -16 -10 -21q-8 -4 -14.5 -4.5t-15.5 -3.5q-5 -1 -9.5 -1t-9.5 -1q-13 -3 -19.5 -12.5t-7.5 -22.5q-1 -43 -0.5 -85.5t0.5 -86.5z" />
    <glyph glyph-name="F" unicode="F" horiz-adv-x="220" 
d="M187 592q2 -2 1 -5.5t-4 -3.5h-20.5t-18.5 -2q-64 -7 -79 -73q-5 -25 -5 -49.5t3 -49.5q2 -18 6 -34q6 -29 33 -30q35 -4 57 -37q12 -16 -4 -26q-7 -4 -14.5 -5.5t-14.5 -3.5q-4 -2 -7.5 -1.5t-7.5 -0.5q-24 -5 -34.5 -16t-12.5 -37q-1 -8 -1 -17v-18q1 -33 1.5 -66.5
t0.5 -66.5q0 -20 -5 -43q-2 -8 -7 -15.5t-13 -9.5q-10 -2 -16.5 5.5t-9.5 15.5q-5 13 -8 26l-6 27q-1 5 -0.5 9t0.5 9q0 127 -0.5 252t-0.5 252q0 25 7 35.5t30 17.5q84 22 150 -39z" />
    <glyph glyph-name="G" unicode="G" horiz-adv-x="314" 
d="M138 605q-5 -26 -9 -51.5t-7 -51.5q-12 -97 -14 -194t8 -196q1 -8 2.5 -15.5t4.5 -13.5q6 -13 13.5 -13.5t15.5 10.5q35 52 37 115q1 34 -15.5 64.5t-35.5 59.5q-1 2 -1 3.5t-1 3.5q5 9 16.5 15.5t24.5 10t26.5 4t22.5 -2.5q17 -4 28 -16t11 -32q-1 -34 -2.5 -67.5
t-5.5 -67.5q-3 -42 -14 -88q-8 -28 -23 -50q-8 -11 -21 -18t-28.5 -11t-31.5 -4t-28 3q-36 10 -56.5 35.5t-30.5 61.5q-4 14 -6 30l-4 32q-7 96 0 190t24 187q4 17 10 33t13 32q14 33 49 50q14 6 32 7.5t35.5 -2.5t32.5 -13t22 -23t10.5 -29.5t5.5 -31.5q2 -20 1.5 -39.5
t-2.5 -39.5q-1 -10 -5.5 -19t-10.5 -17q-4 -7 -11.5 -10t-16 -2.5t-16 4.5t-11.5 11q-7 10 -8.5 21.5t-0.5 23.5q1 9 3 17.5t1 17.5l-2 26.5t-4 26.5q-5 20 -27 23z" />
    <glyph glyph-name="H" unicode="H" horiz-adv-x="290" 
d="M0 317v250q0 22 4 30.5t18 14.5q15 5 28.5 0.5t21.5 -19.5q6 -11 10 -24t5 -26q3 -45 0.5 -88t-7.5 -87q-1 -5 -1.5 -9t-0.5 -9q-2 -10 0 -18.5t12 -14.5q10 -5 20 -4.5t17 10.5q15 20 19 41q11 63 18 124q4 29 6.5 57.5t5.5 57.5q2 19 6.5 25.5t16.5 9.5t24 -1.5
t18 -17.5q4 -9 6.5 -19t2.5 -20q1 -18 -1 -36l-4 -35q-14 -117 -19 -233t-3 -234q0 -23 -5 -31.5t-19 -13.5q-15 -5 -28 1t-20 23q-4 11 -6.5 22t-2.5 22q-1 35 -0.5 68.5t0.5 68.5q0 20 -3.5 27.5t-14.5 10.5q-14 4 -25 -3t-16 -24q-3 -10 -4 -20t-1 -20q-1 -38 -1 -76v-76
q0 -20 -4 -27.5t-17 -12.5q-26 -8 -43 20q-8 15 -10 32.5t-2 34.5q-1 57 -1 114.5v114.5v20z" />
    <glyph glyph-name="I" unicode="I" horiz-adv-x="143" 
d="M80 288q2 -64 2.5 -128t1.5 -128q0 -33 -30 -24q-32 9 -38 40q-8 36 -9 72q-5 73 -6.5 145.5t1.5 145.5l4 72t6 72q2 20 12 39q11 20 29 19t28 -21q8 -14 9.5 -28t0.5 -29l-4 -99l-4 -99v-49h-3z" />
    <glyph glyph-name="J" unicode="J" horiz-adv-x="311" 
d="M130 69q13 36 21.5 72t10.5 74q3 57 4.5 114.5t3.5 115.5q1 31 1 61t2 61q0 10 1 19.5t4 17.5q6 16 19 29q15 12 30.5 7t21.5 -23q5 -13 5 -32q-1 -48 -1 -95t-2 -95q-5 -72 -13 -142.5t-21 -140.5q-5 -25 -12 -48t-21 -44q-11 -16 -25 -27.5t-34 -14.5q-36 -4 -64 22
q-40 39 -45 96q-2 27 -2 54.5t-2 55.5q-1 15 -3.5 30.5t-6.5 30.5q-3 13 -1.5 23.5t12.5 19.5q26 21 52 7q17 -10 25.5 -25.5t10.5 -34.5q2 -16 0.5 -32t-2.5 -32q-1 -18 -2.5 -35.5t0.5 -34.5q2 -34 33 -54z" />
    <glyph glyph-name="K" unicode="K" horiz-adv-x="318" 
d="M111 376q17 13 26.5 27.5t14.5 31.5q6 18 10.5 36l9.5 37l10 32t13 32q9 20 28 34q17 14 33.5 7t17.5 -30q1 -12 -1.5 -24.5t-7.5 -23.5l-40 -111l-42 -110q-26 -64 1 -128l18.5 -40.5l19.5 -41.5q8 -18 14 -37t8 -39q1 -13 -0.5 -26t-9.5 -27q-29 22 -48.5 49t-33.5 57
t-24 62.5l-20 65.5q-3 -4 -5.5 -7t-4.5 -6q-32 -63 -20 -135q2 -4 2 -7q4 -17 1 -25.5t-15 -14.5q-14 -6 -28 -4t-22 13q-5 8 -9.5 18t-5.5 20q-2 17 -1.5 33t2.5 33l36 360q2 28 1 55t-13 54q-9 20 9 36q17 17 41 8q17 -7 26 -20.5t12 -30.5q2 -11 2.5 -22t-0.5 -22
l-2 -73.5t-3 -73.5v-22z" />
    <glyph glyph-name="L" unicode="L" horiz-adv-x="258" 
d="M239 -2q-23 0 -50 -0.5t-50 0.5q-19 1 -37 4t-36 5q-5 1 -11 2.5t-11 3.5q-23 8 -33.5 13.5t-10.5 29.5q0 28 0.5 55t1.5 55q4 103 7.5 206t8.5 206q0 25 9 46q10 26 35 9q27 -18 32 -50q4 -22 6.5 -44.5t3.5 -45.5q1 -85 0.5 -168.5t0.5 -168.5q0 -34 6 -67
q5 -23 25 -28t45 -8q16 -2 33 -6q33 -10 25 -49z" />
    <glyph glyph-name="M" unicode="M" horiz-adv-x="430" 
d="M367 588q10 -34 10 -74l-4 -192l-4 -191q-1 -20 -1 -38.5v-37.5q0 -10 -1 -15q-2 -38 -27 -42q-13 -2 -26 5t-19 21q-10 22 -9 40q1 28 2.5 55.5t4.5 55.5q3 35 7 69.5t-4 69.5q-3 14 -7.5 26t-8.5 25h-6l-6 -15q-17 -70 -26.5 -140t-13.5 -142q-1 -21 -5.5 -29
t-18.5 -10q-17 -3 -32 4.5t-20 23.5q-3 13 -4 26.5t-1 27.5q-1 10 0.5 19.5t1.5 19.5v6q-2 24 -9 60.5t-15 71.5q-9 40 -20 83q0 -3 -0.5 -6.5t-0.5 -7.5q-1 -24 -2.5 -72l-3 -101l-3 -101t-2.5 -72q-2 -35 -35 -29q-15 3 -26 12t-15 24q-8 29 -8 58q0 78 0.5 155.5
t0.5 155.5q1 48 0.5 94.5t0.5 94.5q0 10 1 19.5t4 19.5q5 15 16 18.5t25 -4.5q11 -6 20 -17q74 -76 92 -173l15 -68l12 -56.5t10 -45.5q3 16 6.5 38.5l7 45l7 43.5t6.5 36l19 89l18 89q7 31 39 27q23 -4 38 -16t20 -33z" />
    <glyph glyph-name="N" unicode="N" horiz-adv-x="321" 
d="M189 357q15 49 17 98t-3 100q-1 11 -1 21.5t2 20.5q1 6 4 11.5t7 10.5q14 16 31.5 14t25.5 -22q7 -17 7 -39q0 -24 -1.5 -48.5t-3.5 -48.5q-8 -109 -15 -215.5t-15 -214.5q-1 -9 -1.5 -17.5t-1.5 -17.5q-2 -15 -11 -21t-23 -1q-19 8 -31 24q-14 17 -19 38.5t-7 43.5
q-3 29 -5 58.5t-5 58.5q-1 9 -6 37t-12 59.5t-14.5 58.5t-13.5 33q-2 2 -5 3.5t-8 5.5q-1 -10 -1 -16.5v-13.5q-1 -27 -1.5 -74.5l-1 -99l-1 -99t-0.5 -74.5q-1 -21 -7 -30.5t-21 -12.5q-17 -4 -23 3t-14 24q-8 16 -10 33.5t-1 34.5q4 55 7 109l6 109q4 69 7.5 137.5
t7.5 137.5q1 12 4 21.5t17 14.5q11 3 23 -1t20 -17q11 -16 17 -33l37 -94.5l36 -94.5q2 -4 3.5 -7.5t3.5 -7.5z" />
    <glyph glyph-name="O" unicode="O" horiz-adv-x="326" 
d="M18 245q-2 35 -3 65t-0.5 57.5t2.5 54.5t6 56q3 24 9.5 46.5t19.5 43.5q13 22 30.5 37.5t41.5 23.5q59 18 97 -30q12 -14 18.5 -30.5t11.5 -34.5q8 -35 12.5 -70t3.5 -70q-2 -72 -1 -142.5t-1 -141.5q-1 -20 -4.5 -34t-10.5 -33q-8 -22 -28.5 -35.5t-45.5 -18t-51 0.5
t-45 20q-20 15 -31 40.5t-17 57t-9 67t-5 70.5zM181 109q1 30 1.5 61.5t0.5 62.5q0 27 1 59l2 65t1.5 64.5t0.5 58.5q-2 15 -4 32t-8 31q-3 10 -17 13t-25 1q-12 -3 -19.5 -14t-9.5 -20q-7 -38 -12 -81.5t-7.5 -88t-1.5 -88t7 -82.5q4 -35 15 -68t24.5 -50t27.5 -10t23 54z
" />
    <glyph glyph-name="P" unicode="P" horiz-adv-x="274" 
d="M144 624q41 -15 67 -40.5t38.5 -57.5t13 -67.5t-8 -70.5t-24.5 -66.5t-38 -54.5l-9 -9q-15 -7 -28 -4.5t-24.5 5.5t-20 2t-13.5 -13q-2 -4 -2 -23v-45.5t-0.5 -57t-3 -57.5t-8 -47.5t-15.5 -26.5q-16 -9 -25.5 -8t-23.5 16q-15 15 -20 33t-3 39q13 122 16 242.5t-3 242.5
q0 17 -0.5 33.5t-0.5 34.5q35 15 68 14t68 -14zM160 334q11 42 11.5 84t-7.5 85q-3 17 -9 34q-5 15 -22.5 18.5t-37.5 -1.5q0 -14 1 -29t0 -30q0 -31 -0.5 -62t0.5 -62q0 -9 1.5 -21t6 -22t15 -15t28.5 -2q5 1 6 4t3 5q2 4 4 14z" />
    <glyph glyph-name="Q" unicode="Q" horiz-adv-x="318" 
d="M214 71q26 -10 46 -24t34 -40l-42.5 -9.5t-41.5 -8.5q-19 -3 -37.5 -5.5t-37.5 -4.5q-44 -5 -69 10.5t-39 57.5q-18 55 -23.5 111.5t-2.5 114.5q5 64 15.5 126.5t27.5 124.5q6 22 15 42.5t24 37.5q20 25 48.5 33.5t56.5 -1.5q30 -9 40 -37q26 -72 36.5 -145t5.5 -149
q-9 -121 -56 -234zM194 411l-4 54l-4 54q-1 5 -3.5 12.5t-5.5 7.5q-15 0 -26 -8q-11 -10 -17 -23t-8 -27l-14 -75t-12 -75q-7 -55 -8 -110t1 -110q1 -7 1.5 -14t8.5 -9q6 -1 13.5 1.5t12.5 6.5q13 9 19 22.5t10 28.5q34 129 36 264z" />
    <glyph glyph-name="R" unicode="R" horiz-adv-x="361" 
d="M312 54q11 -14 11.5 -23t-7.5 -20q-10 -11 -24.5 -15.5t-27.5 3.5q-18 12 -29 27q-7 11 -12.5 23t-10.5 25l-28.5 75.5l-29.5 75.5q-2 4 -7.5 5.5t-11.5 1.5t-11.5 -1.5t-6.5 -5.5q-8 -20 -12 -39.5t-6 -39.5q-6 -58 5 -119q3 -21 -5.5 -32.5t-22 -14.5t-28.5 2t-26 18
q-27 30 -21 74q16 121 20 241.5t2 242.5v68q38 11 69 10t69 -14q61 -24 94 -69t40.5 -96.5t-7.5 -102t-48 -84.5q-6 -6 -9 -8v-1q2 -56 24 -107.5t57 -99.5zM175 547q-4 9 -11.5 12.5t-16.5 4t-18 -0.5t-17 -1l-6 -111.5l-6 -110.5q5 -11 24 -20t41 -15q4 2 6.5 3t4.5 3
q9 13 12 39t3.5 54.5t-1 55.5t-1.5 44q0 11 -4.5 21.5z" />
    <glyph glyph-name="S" unicode="S" horiz-adv-x="297" 
d="M118 368q22 -29 42.5 -42t37.5 -25t29 -31.5t17 -61.5t-2.5 -82.5t-22.5 -80.5q-5 -14 -14 -27t-20 -24q-7 -8 -21 -12.5t-29.5 -5t-30.5 1.5t-24 8q-24 15 -39 39.5t-23 54.5t-11.5 63t-6.5 65q-1 11 1 21l4 20q3 10 12 21q20 20 46 8q12 -5 15.5 -12t0.5 -22
q-15 -75 16 -145q16 -33 25 -36.5t14 10.5t8 38t7 46q2 15 3.5 30t3.5 30q1 48 -42 75q-5 3 -8.5 6t-8.5 5q-73 43 -90 122q-10 48 0 92.5t46 82.5q16 17 38 30q50 28 94 -7q18 -14 30 -33q15 -23 24 -53.5t10 -62.5t-6 -64t-22 -59q-14 7 -23 9t-14.5 6t-7.5 12.5t0 28.5
q0 5 0.5 23.5t0.5 41.5t-2.5 46t-8 38.5t-16 19t-27.5 -13.5q-16 -16 -23.5 -41.5t-7.5 -53t7 -54.5t19 -45z" />
    <glyph glyph-name="T" unicode="T" horiz-adv-x="279" 
d="M63 580q-20 1 -36 3q-12 0 -21 6q-10 5 -16 15t-5 20q3 22 29 25q58 4 118 6q17 1 34 -0.5t34 -3.5q11 -2 20.5 -7l19.5 -10q8 -4 12.5 -12t1.5 -21q-25 -1 -49.5 -3.5t-50.5 -10.5q1 -149 0.5 -294.5t0.5 -292.5q-23 -13 -47 -5.5t-38 32.5q-11 17 -14 35.5t-3 38.5
v33.5t1 33.5q2 99 5 197t5 197q1 5 0 9t-1 9z" />
    <glyph glyph-name="U" unicode="U" 
d="M140 120l10 94t7 93q3 57 4 113t3 113q1 14 3.5 28.5t7.5 28.5q8 21 26.5 31t39.5 8q15 -2 20 -8t3 -21q-3 -45 -7 -89l-8 -89l-13.5 -149t-14.5 -149q-2 -20 -4.5 -39.5t-7.5 -38.5q-13 -46 -47.5 -61.5t-78.5 4.5q-23 11 -40 27.5t-25 40.5q-7 20 -12.5 42t-5.5 43
q0 170 6 341q2 25 9 50t15 49q7 19 20 34.5t34 24.5q18 -27 20 -61q3 -39 3 -76l-4 -159l-4 -158q-1 -12 1.5 -24.5t6.5 -24.5q2 -8 9.5 -14.5t23.5 -3.5z" />
    <glyph glyph-name="V" unicode="V" horiz-adv-x="311" 
d="M0 620q16 14 31 15t31 -8q50 -26 54 -88v-31t-1 -62.5t-2 -78.5t-1.5 -78.5t-0.5 -62.5t1 -31q2 -12 8.5 -21.5t21.5 -11.5q3 4 6 29.5t6 61.5t5.5 77.5t4.5 78t3 62.5t2 31q2 15 3 30t4 30q7 44 47 57q21 7 33.5 -5t9.5 -37q-3 -23 -7 -44.5t-9 -44.5l-78 -438
q-2 -8 -2 -13q-3 -20 -11 -34t-27 -19q-16 -3 -34 7t-26 30q-12 30 -15 64q-3 46 -5 91.5t-5 92.5q-5 85 -16.5 167.5t-28.5 165.5q-1 4 -1 8.5t-1 9.5z" />
    <glyph glyph-name="W" unicode="W" horiz-adv-x="503" 
d="M397 626q16 8 31 8t31 -15q-1 -5 -1 -9t-1 -9q-15 -83 -25 -165.5t-14 -167.5q-2 -47 -3.5 -92.5t-3.5 -91.5q-1 -33 -14 -64q-7 -20 -25 -30.5t-34 -7.5q-20 4 -28 18t-11 34q0 3 -1 6.5t-1 6.5l-35.5 180l-35.5 180l-42 -180.5l-42 -180.5q-1 -3 -2 -6.5t-1 -6.5
q-4 -20 -12.5 -34t-27.5 -17q-17 -2 -34.5 9t-24.5 31q-5 16 -7.5 32t-3.5 33q-1 46 -0.5 91.5t0.5 92.5q-1 85 -8.5 168t-19.5 167v8.5t-1 9.5q17 14 32 13.5t30 -9.5q23 -14 36 -36.5t14 -54.5q0 -5 -2 -31t-4.5 -62.5l-5.5 -78l-5.5 -78t-4 -62.5t-0.5 -31q2 -12 7.5 -22
t19.5 -12q3 4 7.5 29t9.5 61t9.5 77l8.5 77.5l7 62.5t4 31l4 29t5 30q3 14 9.5 23.5t14.5 17.5q10 26 40 17q40 -12 49 -56q2 -15 3.5 -30t3.5 -30q1 -5 2.5 -31t4.5 -62t6 -77.5t6.5 -77.5t7 -61.5t6.5 -29.5q15 1 21 11t8 22q1 5 0.5 31t-1.5 62.5t-3 78.5t-3 78.5
t-2 62.5t-1 31q4 61 53 89z" />
    <glyph glyph-name="X" unicode="X" horiz-adv-x="300" 
d="M0 605q10 25 38 23q24 1 41 -18t28 -48.5t17.5 -65.5t10.5 -68.5t6.5 -57.5t5.5 -33q0 4 1 22t2.5 42t3 51.5t3 51.5t3 41t1.5 21q2 18 9.5 33t23.5 25q27 18 50 0q12 -9 15 -22.5t-6 -26.5q-19 -26 -28.5 -59t-13.5 -69.5t-5 -73.5t-4 -71q0 -27 8.5 -60t19 -67l21 -66
t14 -57.5t-2.5 -40.5t-27 -15q-32 -1 -48 13.5t-22.5 39.5t-6.5 56.5t1 64t0.5 62.5t-9.5 52q-9 -17 -18.5 -55.5t-17.5 -82l-16 -83.5t-14 -59q-41 -15 -58 -6.5t-19 33t7 60t20.5 74l22 76t11.5 65.5q4 57 3 98t-8 72t-19 56t-29 50l-7.5 11.5z" />
    <glyph glyph-name="Y" unicode="Y" horiz-adv-x="300" 
d="M274 623q5 -5 8 -11.5t3 -14.5q-1 -10 -7 -18t-13 -16q-2 0 -2 -2q-30 -40 -42.5 -86t-15.5 -95q-3 -46 -5 -92.5l-4 -93.5v-1q0 -13 -0.5 -25.5t-1.5 -24.5l-5 -118q0 -5 -1 -8q0 -7 -6 -13q-7 -7 -20 -9q-6 0 -12 0.5t-11 1.5q-9 1 -18 3.5t-14 9.5q-4 5 -5 11t-1 11
l-3 78v55q2 55 2.5 109t-10.5 108t-28 104t-43 98q-2 3 -3.5 6.5t-3.5 6.5q-12 19 1 35q8 8 17 11.5t20 -1.5q10 -4 19.5 -8.5t17.5 -11.5q10 -8 17.5 -30t14 -47.5t11.5 -49t9 -35.5l4 -12t4 -13h1q5 26 11 53l12 53q2 14 5 27t9 26q9 18 26.5 31t37.5 11q8 0 14 -4t11 -9z
" />
    <glyph glyph-name="Z" unicode="Z" horiz-adv-x="316" 
d="M260 14q-17 -10 -42 -17.5t-52 -12.5t-53 -6t-45 3q-35 8 -54 36t-12 65q5 28 12.5 55t16.5 54q26 85 57 165.5t69 160.5q10 22 6 34.5t-31 22.5q-6 2 -13 2.5t-13 3.5q-11 5 -21.5 10.5t-18.5 13.5q-9 9 -6 18t16 11q45 9 83 7t82 -15q8 -2 16 -8q18 -11 21.5 -23
t-6.5 -32l-73 -149.5t-63 -153.5q-10 -30 -17.5 -60l-15.5 -61q-3 -11 -3 -21.5t1 -21.5q1 -9 16 -16.5t34 -14t38 -11.5t28 -8q11 -4 23 -9t20 -22z" />
    <glyph glyph-name="numbersign" unicode="#" horiz-adv-x="667" 
d="M467 343q37 -18 51 -39t12 -54h-17q-31 -1 -54 -15t-40 -38q-10 -14 -17.5 -30t-14.5 -33q-7 -16 -11.5 -33t-12.5 -33q-13 -30 -33 -52q-9 -11 -22 -14.5t-27 3.5t-18.5 18.5t-2.5 25.5q3 15 7 30t10 29q8 18 18 35.5l19 34.5q13 26 -14 36q-11 5 -20.5 3t-19.5 -6
q-33 -13 -52 -46q-10 -17 -18 -34l-16 -34l-21.5 -42.5t-22.5 -41.5q-9 -16 -22.5 -28t-31.5 -18q-14 18 -18 39.5t-1 43.5t11.5 41.5t20.5 33.5l6 6q33 34 -9 57q-6 4 -13.5 6l-14.5 4q-10 3 -20 5.5t-18 7.5q-18 9 -19.5 22.5t12.5 27.5q12 12 26 16.5t31 6.5q14 2 27 3
t27 3q38 5 51 39q4 8 3.5 12t-6.5 18q-16 -1 -32 -2.5t-32 -0.5q-43 0 -59 37q-6 12 -6 26q0 13 4.5 18t17.5 7q22 4 43.5 7t42.5 8q34 8 64 22q64 29 85 97q3 11 7 20.5t9 19.5q10 23 35 32q20 6 34 -4t12 -31q-1 -11 -5 -22l-8 -22q-4 -9 -8.5 -17.5t-7.5 -16.5
q-2 -7 -3 -13.5t0 -13.5q2 -17 11 -23t24 4q12 7 22.5 17t18.5 21q9 13 15.5 28.5t14.5 29.5q8 16 17 32t20 31q11 14 26 23t36 8q8 -44 -1 -85t-28 -81q11 -2 21.5 -3.5t19.5 -4.5q10 -3 19.5 -6.5t17.5 -9.5q14 -11 16.5 -25.5t-6.5 -30.5q-14 -24 -38 -14
q-31 11 -56.5 3.5t-47.5 -30.5q-11 -11 -14.5 -21t-5.5 -30zM386 396q-16 7 -32.5 4t-31 -12t-24 -23.5t-12.5 -30.5q-2 -12 1.5 -16.5t15.5 -5.5q16 -1 31.5 5.5t27 18.5t18.5 27.5t6 32.5z" />
    <glyph glyph-name="ampersand" unicode="&#x26;" horiz-adv-x="492" 
d="M271 193q-26 -4 -41 -18.5t-26 -36.5q-11 5 -13.5 14t-1.5 18q1 42 39 64q10 6 20.5 10t21.5 9q9 3 18 5.5t18 5.5q82 29 92 114l2 13.5t3 11.5q5 14 16 16.5t21 -9.5q12 -14 14 -31q8 -69 -46 -109q-11 -8 -22 -13.5t-22 -13.5q-10 -7 -19 -14.5t-17 -16.5
q-18 -20 -12 -47q7 -39 -6 -78q-9 -26 -25 -45.5t-37 -32t-45.5 -17.5t-50.5 -1q-54 8 -88 46.5t-36 93.5q-2 44 13.5 81t45.5 69l22 24t21 25q24 30 1 64q-21 31 -21 64.5t17 66.5q40 77 125 106q8 3 17.5 4l19.5 2q19 1 33.5 -5t24 -17.5t13 -26t1.5 -30.5q-2 -9 -3 -18
t-3 -17l-8 -33.5l-8 -33.5q-34 15 -40.5 48t15.5 77q-6 11 -15.5 12t-17.5 -4q-10 -5 -20 -12.5t-17 -16.5q-39 -51 -46 -112q-2 -11 -0.5 -22.5t4.5 -22.5q5 -20 22 -29t36 -5q14 3 21.5 -3.5t3.5 -20.5q-5 -15 -18 -27q-8 -5 -16.5 -8.5l-17.5 -7.5q-58 -23 -89.5 -74
t-24.5 -114q3 -24 18 -47q11 -17 28 -19.5t34 8.5q20 13 33 30.5t23 37.5q8 17 13 33.5t3 35.5z" />
    <glyph glyph-name="exclam" unicode="!" horiz-adv-x="162" 
d="M116 327q-2 -48 -3 -91t-3 -85q0 -7 -1 -13.5t-3 -13.5q-7 -19 -22.5 -24t-30.5 7q-8 5 -13 14t-9 17q-3 8 -4 17l-2 18q-3 91 -5.5 181t-5.5 181q-1 15 -2.5 30t-0.5 30q2 27 9 51q5 15 16.5 18.5t25.5 -3.5q24 -14 27 -39q5 -23 8.5 -46.5t5.5 -47.5q4 -52 7 -102.5z
M49 50q30 0 43 -16q7 -8 9.5 -16t-2.5 -18q-8 -18 -30 -18q-17 1 -32 8t-29 15q-9 6 -8 16.5t11 15.5q11 5 21 8z" />
    <glyph glyph-name="question" unicode="?" horiz-adv-x="295" 
d="M14 329q-8 19 -10 38l-4 39q-2 39 3.5 76.5t21.5 72.5q14 31 35.5 53.5t54.5 33.5q41 13 74.5 -1t53.5 -52q15 -30 17.5 -61t-1.5 -63q-15 -101 -89 -172q-20 -20 -38 -41q-31 -34 -28 -81q1 -8 1.5 -17t-0.5 -17q0 -25 -17 -41q-7 -6 -14.5 -10t-17.5 -2q-11 3 -16.5 11
t-5.5 18q-1 16 -0.5 32t2.5 32q3 23 12.5 43t21.5 40l28 43l28 43q17 25 31.5 51.5t23.5 55.5q8 23 11 47.5t-5 49.5q-7 23 -18 40q-8 14 -19.5 15.5t-24.5 -6.5t-21 -19t-13 -25q-27 -72 -33 -148q-1 -16 -2.5 -31.5t-9.5 -29.5q-6 -12 -12 -15.5t-20 -1.5zM21 47
q23 5 42.5 1.5t38.5 -12.5q13 -7 10 -17q-4 -11 -12 -16q-7 -4 -18.5 -3t-23 5t-21.5 10.5t-14 13.5q-2 4 -2 8q-1 2 -0.5 4t0.5 6z" />
    <glyph glyph-name="hyphen" unicode="-" horiz-adv-x="248" 
d="M207 326q-8 -15 -19 -21t-24 -8q-42 -4 -82 -0.5t-82 9.5q13 19 38 30.5t54 14.5t59.5 -3t55.5 -22z" />
    <glyph glyph-name="one" unicode="1" horiz-adv-x="220" 
d="M87 548q-23 -2 -44.5 -4.5t-41.5 -4.5q-4 28 11 55.5t39.5 47t54.5 27.5t56 -2q-2 -23 -3 -46.5t-3 -47.5q-5 -67 -9 -134t-9 -134q-3 -40 -5.5 -79.5t-4.5 -78.5q-1 -13 1 -26t5 -25q2 -12 9 -20.5t18 -15.5q17 -9 19 -24t-13 -27q-43 -34 -97 -34q-27 2 -42 23
q-8 11 -10 23t6 24q18 28 24.5 59t6.5 63q1 66 4 130.5t11 130.5l8 58.5t9 61.5z" />
    <glyph glyph-name="two" unicode="2" horiz-adv-x="262" 
d="M136 595q-30 -32 -43 -78q-5 -22 -8 -44l-6 -45q-22 2 -38 17t-20 40q-3 21 0 40q8 37 26.5 66.5t50.5 50.5q33 23 65.5 16t53.5 -42q7 -13 12 -27t7 -29q5 -29 0.5 -58t-12.5 -57l-114 -354q-2 -8 -5 -15t-5 -15q26 -5 51 8.5t64 53.5q14 -10 17.5 -23.5t1.5 -28.5
q-5 -32 -25.5 -51.5t-54.5 -26.5q-28 -6 -55.5 -4.5t-55.5 5.5q-45 7 -43 54q1 19 6.5 35t13.5 33q40 87 73 175.5t60 179.5q6 21 10.5 41.5t1.5 43.5q-2 15 -7.5 22.5t-21.5 16.5z" />
    <glyph glyph-name="three" unicode="3" horiz-adv-x="290" 
d="M216 323q48 -92 30 -195q-12 -62 -53 -100q-15 -14 -33 -21q-15 -7 -35 -7q-22 0 -44 11q-20 13 -35 33q-36 52 -28 126q1 7 3.5 13t6.5 13q12 20 32 20q7 0 15 -3q10 -4 14.5 -9.5t6.5 -10.5q3 -11 -1 -24q-9 -32 12 -62q8 -12 21 -20q9 17 14.5 32.5l10.5 30.5
q5 20 6 39.5t-2 39.5q-7 71 -66 108l-10 6l3 11v1q0 2 1 6t6 7q45 38 48 104q1 20 -0.5 40t-3.5 41q-1 9 -6 14.5t-10 8.5q-5 4 -13 4q-11 0 -14 -14q-2 -8 -2.5 -15.5t-1.5 -15.5q0 -4 -0.5 -7.5t-0.5 -7.5q-2 -10 -5 -23.5t-17 -24.5l-9 -7l-9 6q-30 19 -41 51
q-12 32 -1 65q11 30 37.5 49.5t57.5 19.5q8 0 12 -1q40 -5 68 -30q26 -20 42 -60q9 -23 11 -50t-4 -59q-2 -16 -6.5 -33.5t-10.5 -38.5q-10 -33 4 -61z" />
    <glyph glyph-name="four" unicode="4" horiz-adv-x="262" 
d="M175 654q14 2 25 2.5t25 2.5q1 -8 1.5 -15t0.5 -15q-3 -73 -2.5 -147.5t-0.5 -149.5t-5 -149.5t-15 -147.5q-3 -29 -22 -33q-36 14 -44.5 41t-4 59t14.5 66t10 62q-2 26 -19 37t-41 1q-27 -10 -53 3t-37 42q-8 20 -8 41t4 42q9 54 19.5 106.5l21.5 105.5q3 20 14 41
q6 13 18 18t23 2q21 -6 20 -38q-3 -55 -10.5 -109t-18.5 -108q-2 -10 -3.5 -20t-1.5 -20q-2 -32 23 -39q10 -3 22.5 1.5t19.5 16.5q11 20 13 41q4 57 6.5 114t4.5 114q1 7 0.5 14.5t-0.5 17.5z" />
    <glyph glyph-name="five" unicode="5" horiz-adv-x="307" 
d="M120 418l18.5 -5t15.5 -5q30 -11 49.5 -33.5t30.5 -51.5q9 -29 11 -57q3 -46 -1.5 -91t-14.5 -90q-5 -22 -13.5 -42t-24.5 -37q-23 -26 -52.5 -33.5t-61.5 2.5q-65 17 -76 85q-7 51 30 96q22 -32 34 -65.5t26 -68.5q4 8 7 12t5 9q26 58 40 118.5t12 125.5q0 26 -8.5 35.5
t-34.5 12.5q-38 4 -54 20t-20 54q-4 43 -1 85t17 84q13 37 36.5 63t64.5 36q15 3 30 0.5t28.5 -9.5t24.5 -18.5t18 -25.5q14 -27 7 -57t-30 -49q-15 14 -23.5 31.5t-13.5 37.5q-10 33 -40 15q-20 -13 -22 -35q-5 -38 -8 -74.5z" />
    <glyph glyph-name="six" unicode="6" horiz-adv-x="272" 
d="M95 80q21 23 32 47.5t17 51.5q14 58 -6 119q-5 18 -2.5 26.5t15.5 15.5q14 8 29.5 6t26.5 -13q18 -21 18 -51q-2 -44 -6 -87q-4 -30 -7.5 -60t-10.5 -60q-5 -26 -19.5 -47.5t-40.5 -35.5q-34 -20 -66.5 -11.5t-51.5 41.5q-12 20 -17 42t-6 45q-6 259 107 495q13 28 37 52
q14 14 31.5 13.5t31.5 -11.5q21 -17 10 -39q-2 -5 -5.5 -10.5l-6.5 -10.5q-132 -241 -113 -508q0 -2 1 -4t2 -6z" />
    <glyph glyph-name="seven" unicode="7" horiz-adv-x="332" 
d="M71 544q-12 15 -15.5 32t0.5 32.5t14 29t27 22.5q9 5 19.5 8t21.5 4q29 4 57 1t55 -11q9 -3 20 -8q17 -9 21.5 -19t-0.5 -28l-54 -207l-32.5 -123l-32.5 -123q-2 -9 -3.5 -17.5t-3.5 -17.5q-5 -33 14 -62q10 -14 9 -25.5t-12 -25.5q-23 -29 -63 -32q-30 -2 -61 11.5
t-52 39.5q32 16 48 43t25 59l61 219l60 220q10 37 -30 42q-17 2 -30.5 -5t-24.5 -19q-9 -9 -18 -19t-20 -21z" />
    <glyph glyph-name="eight" unicode="8" horiz-adv-x="302" 
d="M276 565q0 -20 -6 -40.5t-14 -40.5q-8 -19 -16.5 -37t-16.5 -37q-6 -15 -10.5 -30.5t-9.5 -30.5q-13 -47 9 -95q15 -33 23.5 -67.5t6.5 -70.5q-2 -23 -7.5 -43t-16.5 -39t-28.5 -33t-38.5 -22t-43 -9t-43 5q-32 11 -50.5 40.5t-13.5 66.5q3 20 9 39t14 37q8 20 19 38.5
l22 38.5q26 51 27.5 101.5t-24.5 102.5q-9 17 -10.5 34t1.5 34q8 36 22 69.5t37 62.5q10 13 23 22q26 20 55.5 16.5t50.5 -28.5q29 -33 29 -84zM132 201q-17 -16 -30.5 -40t-22 -50.5t-10.5 -52.5t4 -45q23 7 41.5 30t27.5 51.5t7.5 57.5t-17.5 49zM152 412q11 14 21.5 34.5
t18.5 42.5t12.5 43t4.5 36q0 9 -3.5 16.5t-12.5 10.5q-17 -14 -29 -35.5t-18.5 -47t-5.5 -52t12 -48.5z" />
    <glyph glyph-name="nine" unicode="9" horiz-adv-x="279" 
d="M29 -13q6 13 10 22.5t9 17.5q32 50 50.5 103.5t21.5 113.5q2 22 0.5 45t-2.5 50q-13 -10 -17 -12q-23 -15 -48.5 -9t-38.5 29q-10 17 -12.5 34.5t-0.5 35.5q6 35 12.5 68.5t14.5 67.5q5 16 13 31.5t18 29.5q23 31 53.5 42t68.5 6q28 -5 45.5 -25.5t18.5 -49.5
q0 -40 -6 -79l-25 -205l-26 -205l-4 -36.5l-4 -37.5q-1 -20 -21 -26q-31 -11 -62.5 -13.5t-67.5 2.5zM156 601q-41 -33 -58.5 -76t-15.5 -94q1 -5 4 -12t7 -9q5 -2 11.5 2l11.5 7q4 2 8 10q21 41 29.5 83.5t2.5 88.5z" />
    <glyph glyph-name="zero" unicode="0" horiz-adv-x="311" 
d="M0 168q5 91 15.5 180t30.5 178q5 23 13.5 45t22.5 42q29 44 81 56q35 8 63 -8.5t39 -51.5q5 -15 6 -31q10 -125 -3.5 -245.5t-53.5 -238.5q-8 -23 -19 -44t-28 -38q-38 -38 -92 -35q-26 2 -44 16t-25 40q-5 19 -6 39v96zM167 583q-35 -74 -53 -151t-18 -159h5
q46 61 73 129t38 143q6 43 -45 38zM106 55q18 21 34.5 52.5t29 65t19 65t4.5 52.5q-20 -13 -38.5 -34.5t-33 -46.5t-23 -51.5t-8.5 -49.5q0 -14 2.5 -28t13.5 -25z" />
    <glyph glyph-name="slash" unicode="/" horiz-adv-x="368" 
d="M0 30q5 17 9.5 34t11.5 34l76.5 170l76.5 170l78 171l8 16.5t10 15.5t13.5 13t15.5 9q19 6 31.5 -5t7.5 -31q-1 -6 -3.5 -12.5t-5.5 -11.5l-119 -273l-119 -273q-5 -13 -12.5 -25l-15.5 -25q-1 -3 -7 -9q-8 -6 -17 -12t-19 -1q-6 5 -9 14.5t-7 17.5q-2 2 -1.5 5.5
t0.5 6.5q-2 0 -3 1z" />
    <glyph glyph-name="at" unicode="@" horiz-adv-x="571" 
d="M443 102q-1 -19 -10 -32t-23 -23q-33 -25 -74 -30q-57 -8 -112 7t-100 47t-76.5 78.5t-42.5 102.5q-11 55 -1 111.5t39.5 105.5t78 85t115.5 50q126 24 231 -46q97 -64 79 -176q-5 -36 -16 -70t-28 -66q-14 -25 -31 -42q-36 -37 -82 -17q-11 5 -21 9l-21 8q-19 7 -34 -9
q-29 -31 -64.5 -29.5t-61.5 34.5q-45 55 -29 128q6 30 23.5 59t43 51t57.5 34t67 8q46 -6 75 -38q30 -33 11 -72q-3 -7 -6.5 -13t-5.5 -14q-4 -13 1 -24q4 -11 12 -13.5t17 5.5q28 24 33 60q7 41 -4.5 75.5t-45.5 60.5q-44 33 -91.5 38t-97.5 -12q-47 -16 -83 -50t-58 -77.5
t-27.5 -92t9.5 -94.5q38 -114 154 -142q21 -5 41.5 -3.5t40.5 9.5q15 5 29.5 11t30.5 11q14 5 29 5.5t29 -8.5zM236 223q100 51 113 153q2 15 -3 28t-20 21q-13 7 -29.5 3t-27.5 -18q-16 -19 -22 -42q-11 -35 -13 -70.5t2 -74.5z" />
    <glyph glyph-name="period" unicode="." horiz-adv-x="164" 
d="M84 0q-29 5 -45.5 23t-13.5 43q2 16 12 27t24 13t26.5 -7.5t17.5 -23.5l4 -10.5t5 -8.5q11 -11 12.5 -19.5t-9.5 -18.5q-7 -6 -16 -9.5t-17 -8.5z" />
    <glyph glyph-name="colon" unicode=":" horiz-adv-x="267" 
d="M133 150q-29 5 -45.5 23t-13.5 43q2 16 12 27t24 13t26.5 -7.5t17.5 -23.5l4 -10.5t5 -8.5q11 -11 12.5 -19.5t-9.5 -18.5q-7 -6 -16 -9.5t-17 -8.5zM85 466q27 13 57 0q14 -7 21.5 -20t5.5 -30q-2 -22 -20 -29q-10 -4 -20 -3t-18 9l-13 14.5t-12 16t-6 18.5t5 24z" />
    <glyph glyph-name="semicolon" unicode=";" horiz-adv-x="164" 
d="M92 285q17 -11 21 -37.5t-7 -57.5q-8 -20 -18.5 -32.5t-20.5 -11.5q-9 0 -13.5 14t-2.5 34q0 6 1 13.5t0 12.5q-3 16 -1 27t13 22q7 7 14 9.5t14 6.5zM38 497q27 13 57 0q14 -7 21.5 -20t5.5 -30q-2 -22 -20 -29q-10 -4 -20 -3t-18 9l-13 14.5t-12 16t-6 18.5t5 24z" />
    <glyph glyph-name="comma" unicode="," horiz-adv-x="115" 
d="M67 115q17 -11 21 -37.5t-7 -57.5q-8 -20 -18.5 -32.5t-20.5 -11.5q-9 0 -13.5 14t-2.5 34q0 6 1 13.5t0 12.5q-3 16 -1 27t13 22q7 7 14 9.5t14 6.5z" />
    <glyph glyph-name="less" unicode="&#x3c;" horiz-adv-x="314" 
d="M281 -5q-13 -6 -24 -2.5t-20 10.5q-21 15 -37 32l-88.5 101.5l-88.5 101.5q-11 12 -16.5 22t-6.5 20t2.5 21t11.5 26l144 267q5 12 12 20q7 10 15.5 16t22.5 4q13 -2 23.5 -13t10.5 -25q2 -25 -7 -45q-5 -14 -12 -26l-15 -25l-46.5 -83l-48.5 -82q-17 -28 -17 -55t13 -55
q12 -25 29 -45t37 -39l37 -34.5t35 -36.5q14 -16 23 -34t11 -41z" />
    <glyph glyph-name="greater" unicode="&#x3e;" horiz-adv-x="295" 
d="M0 627q11 10 20.5 10.5t20.5 -4.5q33 -14 52 -45q42 -66 78 -133.5t68 -138.5q10 -21 6 -40.5t-16 -38.5l-73 -118l-73 -118q-2 -3 -4.5 -5.5t-4.5 -6.5q-23 11 -31.5 29t-10.5 40q-2 26 4.5 50t20.5 46q8 13 17 25t17 25l16 24l16 24q40 67 10 139q-7 16 -14.5 31.5
t-16.5 30.5l-44 74.5l-44 74.5q-4 6 -7 12t-7 13z" />
    <glyph glyph-name="underscore" unicode="_" horiz-adv-x="496" 
d="M469 13q-14 -2 -28.5 -5t-28.5 -3q-81 -2 -161.5 -3l-161.5 -2q-16 0 -31.5 2.5t-30.5 6.5q-11 3 -19.5 10.5t-7.5 24.5q17 2 33 3l33 2l204 12l138 9q18 1 34 -2.5t28 -19.5q0 -9 -0.5 -18t-0.5 -17z" />
    <glyph glyph-name="equal" unicode="=" horiz-adv-x="466" 
d="M428 291q-14 -2 -28.5 -5t-28.5 -3q-37 -8 -81 -10t-88 0.5t-83 8t-65 13t-34 15.5t9.5 14.5t65.5 10.5t134 4l138 9q13 3 26.5 0t23 -10.5t13.5 -19.5t-2 -27zM428 385q-14 -2 -28.5 -5t-28.5 -3q-75 -2 -140 0t-111.5 6.5t-69.5 10.5t-14 13t55 14t138 12l138 9
q13 0 26.5 -2.5t23 -9t13.5 -17.5t-2 -28z" />
    <glyph glyph-name="quotesingle" unicode="'" horiz-adv-x="122" 
d="M67 616q17 -11 20.5 -38t-7.5 -58q-8 -20 -18.5 -32t-19.5 -12q-10 0 -14.5 14t-2.5 34q1 7 1.5 14t-0.5 12q-3 16 -1 27t13 22q7 7 14 10t15 7z" />
    <glyph glyph-name="asterisk" unicode="*" horiz-adv-x="234" 
d="M206 561q8 -6 3 -13q-6 -8 -15 -9t-18 -1h-39q8 -13 15 -25.5l14 -25.5q3 -5 3 -11q-1 -3 -3 -6t-6 -3q-10 2 -15.5 8.5t-10.5 14.5l-11.5 19.5l-11.5 19.5q-8 -12 -14.5 -23.5t-14.5 -22.5q-3 -5 -8 -10t-10 -5q-8 0 -10 11q-1 6 4 17q6 13 15 24l5.5 9t5.5 8h-52
q-8 0 -11 2q-6 4 -5 10q1 5 4.5 6.5t7.5 2.5q16 2 31.5 3l30.5 2l-30 51q-4 6 -4 10q0 7 6 10q5 2 8 -1t5 -6q10 -12 19 -24t17 -25q6 8 11.5 16.5t11.5 16.5l8 11.5t10 9.5q6 3 12.5 2t8.5 -7l-19.5 -31.5t-20.5 -30.5h31t31 -1q3 -1 6 -1t5 -2z" />
    <glyph glyph-name="Ntilde" unicode="&#xd1;" horiz-adv-x="321" 
d="M31 703q-6 -3 -11.5 2t-8 13.5t-1 18t7.5 14.5q17 10 37.5 16t40.5 8q21 0 37 -7t35 -17q15 -9 32 -15t33.5 -6.5t32 6.5t27.5 26q4 7 9 4t8.5 -10t4.5 -16.5t-3 -16.5q-12 -19 -27.5 -29t-32.5 -13t-34.5 -0.5t-34.5 10.5q-16 5 -32.5 16.5t-35.5 15.5q-20 5 -42.5 -0.5
t-41.5 -19.5zM189 357q15 49 17 98t-3 100q-1 11 -1 21.5t2 20.5q1 6 4 11.5t7 10.5q14 16 31.5 14t25.5 -22q7 -17 7 -39q0 -24 -1.5 -48.5t-3.5 -48.5q-8 -109 -15 -215.5t-15 -214.5q-1 -9 -1.5 -17.5t-1.5 -17.5q-2 -15 -11 -21t-23 -1q-19 8 -31 24q-14 17 -19 38.5
t-7 43.5q-3 29 -5 58.5t-5 58.5q-1 9 -6 37t-12 59.5t-14.5 58.5t-13.5 33q-2 2 -5 3.5t-8 5.5q-1 -10 -1 -16.5v-13.5q-1 -27 -1.5 -74.5l-1 -99l-1 -99t-0.5 -74.5q-1 -21 -7 -30.5t-21 -12.5q-17 -4 -23 3t-14 24q-8 16 -10 33.5t-1 34.5q4 55 7 109l6 109
q4 69 7.5 137.5t7.5 137.5q1 12 4 21.5t17 14.5q11 3 23 -1t20 -17q11 -16 17 -33l37 -94.5l36 -94.5q2 -4 3.5 -7.5t3.5 -7.5z" />
    <glyph glyph-name="Aacute" unicode="&#xc1;" horiz-adv-x="293" 
d="M266 7q-19 -14 -31.5 -10.5t-23.5 24.5q-8 15 -10 31t-3 33q-1 14 -1.5 26.5t-1.5 26.5q-1 6 -3 12l-4 12q-11 25 -31 29.5t-38 -14.5q-23 -24 -29 -60q-3 -18 -5 -36.5t-5 -36.5q-2 -13 -6 -24.5t-12 -22.5q-8 -12 -18.5 -15t-26.5 11q-15 13 -17 37v21t1 20
q12 99 16.5 196.5t16.5 196.5q2 62 25 106t86 60q37 1 58.5 -14t32 -37t13.5 -47t3 -43q-2 -41 -2 -71.5t1 -59.5t3.5 -60t5.5 -72q4 -54 2 -106t3 -106q0 -5 1 -7zM114 392h1q0 -27 -0.5 -54.5t0.5 -54.5q0 -23 19 -23q17 -2 30 10.5t16 32.5q2 13 2 25.5v25.5q1 29 -1 58
t-1 58q4 25 -5 45.5t-22 28t-25.5 -2t-13.5 -45.5v-104zM194 808q17 -11 20.5 -38t-7.5 -58q-8 -20 -18.5 -32t-19.5 -12q-10 0 -14.5 14t-2.5 34q1 7 1.5 14t-0.5 12q-3 16 -1 27t13 22q7 7 14 10t15 7z" />
    <glyph glyph-name="Eacute" unicode="&#xc9;" horiz-adv-x="251" 
d="M165 808q17 -11 20.5 -38t-7.5 -58q-8 -20 -18.5 -32t-19.5 -12q-10 0 -14.5 14t-2.5 34q1 7 1.5 14t-0.5 12q-3 16 -1 27t13 22q7 7 14 10t15 7zM115 52q24 -2 39.5 -4t26 -6.5t18 -12t16.5 -19.5q7 -8 -11 -14t-46.5 -8.5t-59 -1t-46.5 7.5q-12 4 -18 14.5t-8.5 22.5
t-2.5 23t-1 17q-2 103 -5 204.5l-6 204.5q-1 24 -1 48.5t-1 49.5q0 11 2 20.5t7 18.5q6 8 11.5 11t15.5 -2q12 -6 32.5 -7.5t33.5 -0.5q13 0 25.5 0.5t25.5 -0.5q15 -1 28 -6.5t21 -18.5t4 -23t-20 -10q-8 -1 -15.5 1t-15.5 3q-5 2 -10.5 3t-10.5 1q-20 2 -28 -6t-9 -28
q0 -11 0.5 -22t1.5 -22q2 -38 3 -75t3 -74q1 -14 4.5 -18.5t16.5 -8.5q6 -2 12 -2t11 -1q14 -1 27 -4q6 -2 10.5 -5.5t5.5 -11.5q4 -16 -10 -21q-8 -4 -14.5 -4.5t-15.5 -3.5q-5 -1 -9.5 -1t-9.5 -1q-13 -3 -19.5 -12.5t-7.5 -22.5q-1 -43 -0.5 -85.5t0.5 -86.5z" />
    <glyph glyph-name="Iacute" unicode="&#xcd;" horiz-adv-x="143" 
d="M90 808q17 -11 20.5 -38t-7.5 -58q-8 -20 -18.5 -32t-19.5 -12q-10 0 -14.5 14t-2.5 34q1 7 1.5 14t-0.5 12q-3 16 -1 27t13 22q7 7 14 10t15 7zM80 288q2 -64 2.5 -128t1.5 -128q0 -33 -30 -24q-32 9 -38 40q-8 36 -9 72q-5 73 -6.5 145.5t1.5 145.5l4 72t6 72
q2 20 12 39q11 20 29 19t28 -21q8 -14 9.5 -28t0.5 -29l-4 -99l-4 -99v-49h-3z" />
    <glyph glyph-name="Oacute" unicode="&#xd3;" horiz-adv-x="309" 
d="M18 245q-2 35 -3 65t-0.5 57.5t2.5 54.5t6 56q3 24 9.5 46.5t19.5 43.5q13 22 30.5 37.5t41.5 23.5q59 18 97 -30q12 -14 18.5 -30.5t11.5 -34.5q8 -35 12.5 -70t3.5 -70q-2 -72 -1 -142.5t-1 -141.5q-1 -20 -4.5 -34t-10.5 -33q-8 -22 -28.5 -35.5t-45.5 -18t-51 0.5
t-45 20q-20 15 -31 40.5t-17 57t-9 67t-5 70.5zM181 109q1 30 1.5 61.5t0.5 62.5q0 27 1 59l2 65t1.5 64.5t0.5 58.5q-2 15 -4 32t-8 31q-3 10 -17 13t-25 1q-12 -3 -19.5 -14t-9.5 -20q-7 -38 -12 -81.5t-7.5 -88t-1.5 -88t7 -82.5q4 -35 15 -68t24.5 -50t27.5 -10t23 54z
M213 808q17 -11 20.5 -38t-7.5 -58q-8 -20 -18.5 -32t-19.5 -12q-10 0 -14.5 14t-2.5 34q1 7 1.5 14t-0.5 12q-3 16 -1 27t13 22q7 7 14 10t15 7z" />
    <glyph glyph-name="Uacute" unicode="&#xda;" 
d="M140 120l10 94t7 93q3 57 4 113t3 113q1 14 3.5 28.5t7.5 28.5q8 21 26.5 31t39.5 8q15 -2 20 -8t3 -21q-3 -45 -7 -89l-8 -89l-13.5 -149t-14.5 -149q-2 -20 -4.5 -39.5t-7.5 -38.5q-13 -46 -47.5 -61.5t-78.5 4.5q-23 11 -40 27.5t-25 40.5q-7 20 -12.5 42t-5.5 43
q0 170 6 341q2 25 9 50t15 49q7 19 20 34.5t34 24.5q18 -27 20 -61q3 -39 3 -76l-4 -159l-4 -158q-1 -12 1.5 -24.5t6.5 -24.5q2 -8 9.5 -14.5t23.5 -3.5zM213 808q17 -11 20.5 -38t-7.5 -58q-8 -20 -18.5 -32t-19.5 -12q-10 0 -14.5 14t-2.5 34q1 7 1.5 14t-0.5 12
q-3 16 -1 27t13 22q7 7 14 10t15 7z" />
    <glyph glyph-name="percent" unicode="%" horiz-adv-x="372" 
d="M0 30q5 17 9.5 34t11.5 34l76.5 170l76.5 170l78 171l8 16.5t10 15.5t13.5 13t15.5 9q19 6 31.5 -5t7.5 -31q-1 -6 -3.5 -12.5t-5.5 -11.5l-119 -273l-119 -273q-5 -13 -12.5 -25l-15.5 -25q-1 -3 -7 -9q-8 -6 -17 -12t-19 -1q-6 5 -9 14.5t-7 17.5q-2 2 -1.5 5.5
t0.5 6.5q-2 0 -3 1zM66 595q39 0 56 -30q9 -14 12.5 -29.5t-3.5 -34.5q-11 -33 -39 -33q-22 2 -41.5 15t-37.5 28q-6 6 -8.5 14.5t-2 17t4 16t9.5 11.5q14 9 27.5 15zM268 187q39 0 56 -30q9 -14 12.5 -29.5t-3.5 -34.5q-11 -33 -39 -33q-22 2 -41.5 15t-37.5 28
q-6 6 -8.5 14.5t-2 17t4 16t9.5 11.5q14 9 27.5 15z" />
    <glyph glyph-name="dollar" unicode="$" horiz-adv-x="297" 
d="M136 364q16 -15 31.5 -23.5t27.5 -19t21 -28t12 -50.5q5 -39 -2 -76.5t-21 -74.5q-5 -12 -13 -24t-18 -23q-5 -6 -15 -9.5t-22 -5.5q1 -7 1 -13.5v-12.5q0 -40 -13 -29q-11 12 -15 47q0 5 -1 8q-9 1 -17 2.5t-15 5.5q-23 14 -36 36.5t-20.5 50.5t-11 58.5t-5.5 59.5
q-1 9 0.5 18.5t3.5 18.5q2 5 5 10l6 10q8 8 20 10t23 -3t14 -11t0 -20q-14 -69 15 -134q8 -17 17 -28q-3 105 -3 209q-3 2 -6 3.5t-6 3.5q-68 41 -83 112q-9 45 0 86t42 76q15 16 35 27l12.5 5.5t10.5 4.5l2 16.5l2 16.5q5 23 11.5 21.5t10.5 -25.5q3 -14 3 -29
q17 -1 35 -16q16 -13 28 -31q14 -21 22 -49t9 -57.5t-5.5 -59t-20.5 -54.5q-12 6 -20.5 8t-13.5 6t-7 12t0 26q0 4 0.5 17.5t0.5 30.5t-0.5 36t-3.5 35t-8.5 26.5t-14.5 10.5q-1 -54 -1.5 -107.5t-2.5 -107.5v-3zM108 556q-9 -15 -13.5 -34t-4.5 -40t3.5 -41t11.5 -36v49
q1 26 1 51.5t2 50.5zM147 251q2 25 -12 45q0 -34 0.5 -67t0.5 -68q2 9 2.5 17.5t2.5 17.5q2 14 3 27.5t3 27.5z" />
    <glyph glyph-name="quotedbl" unicode="&#x22;" horiz-adv-x="164" 
d="M53 616q17 -11 20.5 -38t-7.5 -58q-8 -20 -18.5 -32t-19.5 -12q-10 0 -14.5 14t-2.5 34q1 7 1.5 14t-0.5 12q-3 16 -1 27t13 22q7 7 14 10t15 7zM137 616q17 -11 20.5 -38t-7.5 -58q-8 -20 -18.5 -32t-19.5 -12q-10 0 -14.5 14t-2.5 34q1 7 1.5 14t-0.5 12q-3 16 -1 27
t13 22q7 7 14 10t15 7z" />
    <glyph glyph-name="parenleft" unicode="(" horiz-adv-x="181" 
d="M91 592q8 7 17.5 11.5t20.5 1.5q13 -5 17 -18.5t0 -26.5q-5 -13 -13.5 -22.5t-16.5 -20.5q-38 -47 -50 -107t-3 -120t33 -115t55 -108q6 -11 10 -23t-2 -23q-5 -9 -16 -11t-22 0q-20 4 -35.5 17.5t-25.5 31.5q-10 17 -15 36.5l-10 39.5q-19 91 -23.5 185t25.5 183
q8 25 21 48.5t33 40.5z" />
    <glyph glyph-name="parenright" unicode=")" horiz-adv-x="171" 
d="M36 -7q-11 8 -11 22.5t6 27.5q8 16 19 30t20 30q11 20 16.5 43t7.5 46q9 84 -5.5 167t-51.5 158l-10 23t-7 25q-1 13 4.5 25.5t17.5 17.5q11 5 22.5 0.5t19.5 -12.5t13 -19t9 -22q36 -106 39.5 -217.5t-16.5 -221.5q-5 -30 -15 -60t-32 -51q-9 -9 -22 -14.5t-24 2.5z" />
    <glyph glyph-name="plus" unicode="+" horiz-adv-x="328" 
d="M296 301q-9 -11 -22 -12.5t-25 -2.5h-206q-7 -1 -15 2q-3 2 -5.5 5.5t-0.5 8.5q1 7 6 9.5t11 2.5q59 7 118 9.5t118 -0.5q11 0 17 -5q4 -2 5 -7t-1 -10zM156 168q-11 9 -13 22t-2 26q0 51 -0.5 102t-0.5 103q0 10 2 15q6 8 15 7q6 -2 8.5 -7t3.5 -11q14 -117 9 -236
q-1 -5 -1.5 -9t-3.5 -7q-3 -5 -8 -6t-9 1z" />
    <glyph glyph-name="asciicircum" unicode="^" horiz-adv-x="612" 
d="M275 368q-6 -5 -10 -11.5t-9 -12.5l-7.5 -11.5t-7.5 -10.5q-8 -10 -15 -14q-7 -7 -14 -2q-10 3 -10 15q2 6 3.5 13t5.5 15q-3 0 -8 1t-13 1q-11 -26 -16 -44.5t-5 -31.5q1 -14 1 -21v-8q-2 -1 -4.5 -2t-4.5 -1q-9 -3 -14 -1q-5 0 -8 4q-5 1 -5 12q0 5 1 13t5 19
q3 10 9 24.5t16 33.5q-10 -1 -21.5 -3.5t-25.5 -6.5q-4 -5 -7 -11t-5 -11q-2 -6 -5 -11t-5 -10l-10 -20q-10 -3 -16 0q-4 0 -6 0.5t-4 1.5q-3 1 0 9l8 11q1 3 2.5 5.5t3.5 6.5q3 3 5 6.5l5 8.5q-37 -15 -47 -22q-13 -9 -14 -15q-5 4 -8 11q-3 4 0 11q2 5 14 13q5 3 12 5.5
t16 6.5l39 13l7.5 13t6.5 12q8 11 13 20q4 5 6.5 11t6.5 11q3 6 5.5 10.5t4.5 9.5q5 7 5 16q1 5 -4 8q-6 0 -17 -7q-7 -4 -12.5 -9t-12.5 -10q-11 -15 -20 -29q-8 -17 -5 -31q-5 -2 -9.5 -2.5t-7.5 -0.5q-16 0 -13 14q0 5 10 22q12 17 24 29q8 8 15.5 13.5t15.5 10.5
q17 9 36 6q15 -4 18 -14q2 -11 -4 -25q-3 -8 -7 -16t-9 -16l-11 -18.5l-10 -17.5l-2 -1l12.5 2t11.5 3q7 1 12.5 2t11.5 3q2 5 4.5 10t6.5 11q30 55 55 79q24 25 41 30q17 6 26 0q9 -5 11 -8q-15 -5 -30 -15q-8 -5 -16 -12t-16 -15t-16 -17l-17 -20q-8 -11 -14 -20.5
t-12 -20.5h8l2 -4q4 -6 6 -8q3 6 7 13t10 15q4 6 6.5 10.5t6.5 7.5q3 2 6 3.5l7 3.5q5 1 12 0q2 -1 7 -4v-1l-3.5 -3.5t-3.5 -2.5q-1 -2 -6 -9l-4.5 -6.5l-5.5 -7.5l-6.5 -10.5t-7.5 -13.5q-17 -33 -11 -30q6 2 21 25q4 6 9.5 13l10.5 14l12 13.5t11 11.5q9 14 17 17
q5 3 8 3.5t7 0.5q3 -1 6 -3t7 -4q-37 -34 -44 -56q-4 -11 -6.5 -19.5t-2.5 -12.5q-2 -5 -2 -8.5v-8.5q1 -7 8 2q0 1 3 4q0 1 2 5l3 5q7 -10 0 -16q-6 -6 -15 -6q-12 -2 -19 13q-7 17 10 53zM492 304l4.5 -6.5t4.5 -5.5q1 -3 2 -5.5t-1 -5.5q0 -5 -6 -9q-4 -4 -11 -4
q-4 -1 -8.5 -1t-10.5 -1h-14.5t-18.5 2q-6 0 -10.5 1t-9.5 2q-6 0 -10.5 0.5t-9.5 1.5q-6 0 -11 1l-10 2q-21 3 -38 4t-31 1q-13 -1 -23.5 -2.5t-18.5 -3.5q-17 -6 -24 -13t-7 -11v-3q0 -1 1 -1q0 -4 -3 -4q-3 -1 -5 5q-3 5 -1 13v3.5t1 5.5q2 4 5.5 6.5t8.5 6.5
q6 3 14.5 5.5t19.5 4.5q12 2 28 2.5t39 -0.5q8 -2 15 -2t14 -1h26q4 19 -3 39q-3 4 -3 12q-3 6 -3 13q-11 -11 -22 -20.5l-21 -17.5q-22 -16 -29 -10q-17 9 -9 35q8 28 29 49q8 10 17 15q10 5 15 6q8 0 10 -1q14 -13 -9 -39q-11 -11 -20 -16q-12 -5 -16 -5q-4 -6 -6 -11
l-4 -10q-1 -10 2 -12q5 -3 23 12q8 8 18 16t21 19q-8 51 24 87q10 12 18 13h9.5t8.5 -2q7 -6 15 -15q-26 -9 -37 -26l-8.5 -17.5t-5.5 -13.5l10 10.5t9 10.5l9 9q5 3 8 2l1 -2q-4 -4 -7.5 -9t-8.5 -11q-6 -6 -11.5 -12.5t-11.5 -12.5q-1 -11 2 -25q3 -13 7 -23
q2 -5 3.5 -10.5t3.5 -10.5q4 -9 4 -18q19 -2 31 -2t18 2q10 3 18 14zM375 270q24 -7 35 -7q-15 -15 -37 -18l-18 -5t-11 -2q-11 -2 -12 2q-3 1 -9 7q-6 1 -6 8v5q36 -4 58 10zM365 395q-3 3 -12 -10q-11 -9 -19 -26q3 2 6.5 3.5t6.5 4.5q4 2 6.5 5t5.5 7q2 3 3.5 5.5
t2.5 4.5q2 5 0 6zM504 393q26 -9 52 -6t40 16q2 2 2 -8q0 -9 -6 -15q-10 -10 -36 -10q-7 0 -13 1t-13 2q-14 3 -26 9q-3 -27 -15 -53q-16 -25 -35 -25h-3q-11 0 -17 10q-5 9 -1 27q3 18 13 32q9 11 14 12q7 4 13 4q1 -1 4 -1q2 0 2.5 -0.5t2.5 -0.5q3 -3 4 -3h1l-1 -1
q-4 -3 -10 -9q-2 -3 -4 -5.5t-4 -6.5q-6 -6 -9 -16q-7 -21 -3 -28q0 -2 4 -2q2 0 8 3q2 3 6 9.5t10 17.5q11 19 11 39q-29 12 -32 25q-7 10 -2 18q4 6 13 6q11 0 22 -14q8 -11 8 -27zM477 415q3 -6 7 -10.5t10 -6.5q-2 5 -4 8.5t-5 6.5q-6 6 -8 6q0 -1 -1 -1v-1q0 -1 1 -2z
" />
    <glyph glyph-name="a" unicode="a" horiz-adv-x="302" 
d="M266 7q-19 -14 -31.5 -10.5t-23.5 24.5q-8 15 -10 31t-3 33q-1 14 -1.5 26.5t-1.5 26.5q-1 6 -3 12l-4 12q-11 25 -31 29.5t-38 -14.5q-23 -24 -29 -60q-3 -18 -5 -36.5t-5 -36.5q-2 -13 -6 -24.5t-12 -22.5q-8 -12 -18.5 -15t-26.5 11q-15 13 -17 37v21t1 20
q12 99 16.5 196.5t16.5 196.5q2 62 25 106t86 60q37 1 58.5 -14t32 -37t13.5 -47t3 -43q-2 -41 -2 -71.5t1 -59.5t3.5 -60t5.5 -72q4 -54 2 -106t3 -106q0 -5 1 -7zM114 392h1q0 -27 -0.5 -54.5t0.5 -54.5q0 -23 19 -23q17 -2 30 10.5t16 32.5q2 13 2 25.5v25.5q1 29 -1 58
t-1 58q4 25 -5 45.5t-22 28t-25.5 -2t-13.5 -45.5v-104z" />
    <glyph glyph-name="b" unicode="b" horiz-adv-x="292" 
d="M233 454q-2 -77 -29 -135q-8 -16 -5.5 -29t12.5 -26l8 -10.5l8 -10.5q16 -22 23.5 -48t7.5 -53t-8 -52.5t-24 -46.5q-14 -19 -33 -32t-40.5 -19t-44 -5.5t-43.5 8.5q-44 17 -50 67q-3 20 -4.5 41t-2.5 41q-5 110 -7 218.5t-1 218.5q0 17 13 28q26 20 52.5 23t55.5 -6
q47 -15 73.5 -49.5t34.5 -85.5q2 -11 2.5 -20.5t1.5 -16.5zM63 307q29 -1 53 19q27 24 35 61q8 32 8 64t-5 64q-2 8 -5 15t-7 14q-9 16 -26 22q-12 4 -23 0t-18 -15t-10 -27q-3 -18 -3 -37v-164q1 -5 1 -16zM74 118q1 -11 3.5 -22.5t4.5 -22.5q5 -22 20 -27.5t32 6.5
q7 4 14 13q12 13 20 31t11 37.5t1.5 39.5t-8.5 37q-6 13 -17 16q-15 3 -29.5 2.5t-28.5 -5.5q-17 -6 -25 -26q-2 -6 -1.5 -11.5t1.5 -11.5q2 -17 -0.5 -31t2.5 -25z" />
    <glyph glyph-name="c" unicode="c" horiz-adv-x="267" 
d="M206 268q2 -44 5 -86t-1 -85q-4 -28 -14.5 -45t-32.5 -34q-13 -11 -29.5 -15t-33.5 -2.5t-32.5 8.5t-25.5 20q-17 21 -27.5 39.5t-11.5 44.5q1 58 5 115.5t5 116.5q1 34 1 68t1 69q0 40 14 79q16 45 53 67q15 8 32.5 10t34 -2t30.5 -14.5t22 -26.5q15 -28 18 -57t0 -61
q0 -6 -3 -12t-9.5 -12t-14.5 -9.5t-15.5 -4.5t-12.5 4q-11 12 -12 34.5t-1 40.5q-3 37 -11.5 44t-18 -3.5t-17 -32.5t-7.5 -43q-1 -32 -4.5 -64t-1.5 -65l4 -108l4 -108q0 -7 0.5 -9.5t1 -4.5t1 -4.5t0.5 -9.5l2 -13.5t4 -13.5q8 -21 21 -1q7 14 7 28q1 15 2.5 25t2.5 19
t1.5 19t1.5 25q2 14 5 33t11 30q6 10 19 9.5t27 -2.5z" />
    <glyph glyph-name="acute" unicode="&#xb4;" horiz-adv-x="100" 
d="M63 808q17 -11 20.5 -38t-7.5 -58q-8 -20 -18.5 -32t-19.5 -12q-10 0 -14.5 14t-2.5 34q1 7 1.5 14t-0.5 12q-3 16 -1 27t13 22q7 7 14 10t15 7z" />
    <glyph glyph-name="tilde" unicode="&#x2dc;" horiz-adv-x="335" 
d="M31 703q-6 -3 -11.5 2t-8 13.5t-1 18t7.5 14.5q17 10 37.5 16t40.5 8q21 0 37 -7t35 -17q15 -9 32 -15t33.5 -6.5t32 6.5t27.5 26q4 7 9 4t8.5 -10t4.5 -16.5t-3 -16.5q-12 -19 -27.5 -29t-32.5 -13t-34.5 -0.5t-34.5 10.5q-16 5 -32.5 16.5t-35.5 15.5q-20 5 -42.5 -0.5
t-41.5 -19.5z" />
    <glyph glyph-name="y" unicode="y" horiz-adv-x="300" 
d="M274 618q5 -5 8 -11.5t3 -14.5q-1 -10 -7 -18t-13 -16q-2 0 -2 -2q-30 -40 -42.5 -86t-15.5 -95q-3 -46 -5 -92.5l-4 -93.5v-1q0 -13 -0.5 -25.5t-1.5 -24.5l-5 -118q0 -5 -1 -8q0 -7 -6 -13q-7 -7 -20 -9q-6 0 -12 0.5t-11 1.5q-9 1 -18 3.5t-14 9.5q-4 5 -5 11t-1 11
l-3 78v55q2 55 2.5 109t-10.5 108t-28 104t-43 98q-2 3 -3.5 6.5t-3.5 6.5q-12 19 1 35q8 8 17 11.5t20 -1.5q10 -4 19.5 -8.5t17.5 -11.5q10 -8 17.5 -30t14 -47.5t11.5 -49t9 -35.5l4 -12t4 -13h1q5 26 11 53l12 53q2 14 5 27t9 26q9 18 26.5 31t37.5 11q8 0 14 -4t11 -9z
" />
    <glyph glyph-name="aacute" unicode="&#xe1;" horiz-adv-x="302" 
d="M266 7q-19 -14 -31.5 -10.5t-23.5 24.5q-8 15 -10 31t-3 33q-1 14 -1.5 26.5t-1.5 26.5q-1 6 -3 12l-4 12q-11 25 -31 29.5t-38 -14.5q-23 -24 -29 -60q-3 -18 -5 -36.5t-5 -36.5q-2 -13 -6 -24.5t-12 -22.5q-8 -12 -18.5 -15t-26.5 11q-15 13 -17 37v21t1 20
q12 99 16.5 196.5t16.5 196.5q2 62 25 106t86 60q37 1 58.5 -14t32 -37t13.5 -47t3 -43q-2 -41 -2 -71.5t1 -59.5t3.5 -60t5.5 -72q4 -54 2 -106t3 -106q0 -5 1 -7zM114 392h1q0 -27 -0.5 -54.5t0.5 -54.5q0 -23 19 -23q17 -2 30 10.5t16 32.5q2 13 2 25.5v25.5q1 29 -1 58
t-1 58q4 25 -5 45.5t-22 28t-25.5 -2t-13.5 -45.5v-104zM159 808q17 -11 20.5 -38t-7.5 -58q-8 -20 -18.5 -32t-19.5 -12q-10 0 -14.5 14t-2.5 34q1 7 1.5 14t-0.5 12q-3 16 -1 27t13 22q7 7 14 10t15 7z" />
    <glyph glyph-name="eacute" unicode="&#xe9;" horiz-adv-x="243" 
d="M117 52q24 -2 39.5 -4t26 -6.5t18 -12t16.5 -19.5q7 -8 -11 -14t-46.5 -8.5t-59 -1t-46.5 7.5q-12 4 -18 14.5t-8.5 22.5t-2.5 23t-1 17q-2 103 -5 204.5l-6 204.5q-1 24 -1 48.5t-1 49.5q0 11 2 20.5t7 18.5q6 8 11.5 11t15.5 -2q12 -6 32.5 -7.5t33.5 -0.5
q13 0 25.5 0.5t25.5 -0.5q15 -1 28 -6.5t21 -18.5t4 -23t-20 -10q-8 -1 -15.5 1t-15.5 3q-5 2 -10.5 3t-10.5 1q-20 2 -28 -6t-9 -28q0 -11 0.5 -22t1.5 -22q2 -38 3 -75t3 -74q1 -14 4.5 -18.5t16.5 -8.5q6 -2 12 -2t11 -1q14 -1 27 -4q6 -2 10.5 -5.5t5.5 -11.5
q4 -16 -10 -21q-8 -4 -14.5 -4.5t-15.5 -3.5q-5 -1 -9.5 -1t-9.5 -1q-13 -3 -19.5 -12.5t-7.5 -22.5q-1 -43 -0.5 -85.5t0.5 -86.5zM63 808q17 -11 20.5 -38t-7.5 -58q-8 -20 -18.5 -32t-19.5 -12q-10 0 -14.5 14t-2.5 34q1 7 1.5 14t-0.5 12q-3 16 -1 27t13 22q7 7 14 10
t15 7z" />
    <glyph glyph-name="iacute" unicode="&#xed;" horiz-adv-x="143" 
d="M80 288q2 -64 2.5 -128t1.5 -128q0 -33 -30 -24q-32 9 -38 40q-8 36 -9 72q-5 73 -6.5 145.5t1.5 145.5l4 72t6 72q2 20 12 39q11 20 29 19t28 -21q8 -14 9.5 -28t0.5 -29l-4 -99l-4 -99v-49h-3zM80 808q17 -11 20.5 -38t-7.5 -58q-8 -20 -18.5 -32t-19.5 -12
q-10 0 -14.5 14t-2.5 34q1 7 1.5 14t-0.5 12q-3 16 -1 27t13 22q7 7 14 10t15 7z" />
    <glyph glyph-name="oacute" unicode="&#xf3;" 
d="M18 245q-2 35 -3 65t-0.5 57.5t2.5 54.5t6 56q3 24 9.5 46.5t19.5 43.5q13 22 30.5 37.5t41.5 23.5q59 18 97 -30q12 -14 18.5 -30.5t11.5 -34.5q8 -35 12.5 -70t3.5 -70q-2 -72 -1 -142.5t-1 -141.5q-1 -20 -4.5 -34t-10.5 -33q-8 -22 -28.5 -35.5t-45.5 -18t-51 0.5
t-45 20q-20 15 -31 40.5t-17 57t-9 67t-5 70.5zM181 109q1 30 1.5 61.5t0.5 62.5q0 27 1 59l2 65t1.5 64.5t0.5 58.5q-2 15 -4 32t-8 31q-3 10 -17 13t-25 1q-12 -3 -19.5 -14t-9.5 -20q-7 -38 -12 -81.5t-7.5 -88t-1.5 -88t7 -82.5q4 -35 15 -68t24.5 -50t27.5 -10t23 54z
M135 801q17 -11 20.5 -38t-7.5 -58q-8 -20 -18.5 -32t-19.5 -12q-10 0 -14.5 14t-2.5 34q1 7 1.5 14t-0.5 12q-3 16 -1 27t13 22q7 7 14 10t15 7z" />
    <glyph glyph-name="uacute" unicode="&#xfa;" 
d="M129 73q14 -2 19.5 25.5t7 66t1 79t0.5 63.5q3 57 4 113t3 113q1 14 3.5 28.5t7.5 28.5q8 21 26.5 31t39.5 8q15 -2 20 -8t3 -21q-3 -45 -7 -89l-8 -89q-7 -75 -6.5 -149t-7.5 -149q-2 -20 -4.5 -39.5t-7.5 -38.5q-6 -23 -20.5 -38.5t-34 -23t-41.5 -6.5t-44 11
q-23 11 -40 27.5t-25 40.5q-7 20 -12.5 42t-5.5 43q0 170 6 341q2 25 3 50t9 49q4 22 18 35t28 14.5t24 -10.5t6 -41q3 -39 3 -76q-2 -80 1 -159t1 -158q1 -10 0 -29.5t0.5 -39t7.5 -33.5t22 -12zM160 808q17 -11 20.5 -38t-7.5 -58q-8 -20 -18.5 -32t-19.5 -12
q-10 0 -14.5 14t-2.5 34q1 7 1.5 14t-0.5 12q-3 16 -1 27t13 22q7 7 14 10t15 7z" />
  </font>
</defs>
</svg>
